<svg width="36" height="12" viewBox="0 0 36 12" fill="none" xmlns="http://www.w3.org/2000/svg">
<g id="Group 336">
<path id="Rectangle 123" d="M0 7.99951H28V3.99951H2C0.895431 3.99951 0 4.89494 0 5.99951V7.99951Z" fill="white"/>
<path id="Subtract" fill-rule="evenodd" clip-rule="evenodd" d="M30 12C33.3137 12 36 9.3137 36 5.99999C36 2.68629 33.3137 0 30 0C26.6863 0 24 2.68629 24 5.99999C24 9.3137 26.6863 12 30 12ZM30 7.99951C31.1046 7.99951 32 7.10408 32 5.99951C32 4.89494 31.1046 3.99951 30 3.99951C28.8954 3.99951 28 4.89494 28 5.99951C28 7.10408 28.8954 7.99951 30 7.99951Z" fill="white"/>
</g>
</svg>
