<svg width="36" height="12" viewBox="0 0 36 12" fill="none" xmlns="http://www.w3.org/2000/svg">
<g id="Group 337">
<rect id="Rectangle 91" y="4" width="28" height="4" rx="2" fill="white"/>
<path id="Rectangle 122" d="M0 4H28V8H2C0.895431 8 0 7.10457 0 6V4Z" fill="white"/>
<path id="Subtract" fill-rule="evenodd" clip-rule="evenodd" d="M30 12C33.3137 12 36 9.3137 36 5.99999C36 2.68629 33.3137 0 30 0C26.6863 0 24 2.68629 24 5.99999C24 9.3137 26.6863 12 30 12ZM30 8C31.1046 8 32 7.10457 32 6C32 4.89543 31.1046 4 30 4C28.8954 4 28 4.89543 28 6C28 7.10457 28.8954 8 30 8Z" fill="white"/>
</g>
</svg>
