<svg width="1024" height="1024" viewBox="0 0 1024 1024" fill="none" xmlns="http://www.w3.org/2000/svg">
<path fill-rule="evenodd" clip-rule="evenodd" d="M670.936 938.666V608.213H781.869L798.467 479.445H670.893V397.226C670.893 359.936 681.261 334.506 734.765 334.506H802.947V219.306C769.927 215.792 736.739 214.083 703.533 214.186C605.229 214.186 537.944 274.218 537.944 384.426V479.445H426.669V608.213H537.901V938.666H132.44C106.413 938.666 85.3359 917.589 85.3359 891.562V132.437C85.3359 106.41 106.413 85.333 132.44 85.333H891.565C917.592 85.333 938.669 106.41 938.669 132.437V891.562C938.669 917.589 917.592 938.666 891.565 938.666H670.936Z" fill="white"/>
</svg>
