<svg width="34" height="11" viewBox="0 0 34 11" fill="none" xmlns="http://www.w3.org/2000/svg">
<path d="M0 4.56849C0 8.24438 4.45983 10.5883 8.5 10.5883C12.75 10.5883 17 7.62778 17 7.62778C17 7.62778 21.25 10.5883 25.5 10.5883C29.75 10.5883 34 8.24043 34 4.56849C34 1.91632 31.2394 1.71078 31.2394 1.71078C32.3543 2.78193 32.091 4.56849 29.9639 4.56849C27.8369 4.56849 24.4385 0.588257 21.2541 0.588257C18.0697 0.588257 17.0041 2.62778 17.0041 2.62778C17.0041 2.62778 15.9426 0.588257 12.7541 0.588257C9.56559 0.588257 6.16723 4.56849 4.04429 4.56849C1.92135 4.56849 1.65392 2.78193 2.76888 1.71078C2.76888 1.71078 0.00823022 1.91632 0.00823022 4.56849H0Z" fill="#597A59"/>
<path d="M34 4.48412C34 1.79654 31.2377 1.58826 31.2377 1.58826C32.3533 2.6737 32.0899 4.48412 29.9616 4.48412C28.706 4.48412 27.01 3.08225 25.1698 1.93272C24.5564 3.24246 23.6425 5.54954 24.7087 5.7458C26.199 6.02217 30.4803 6.03819 27.8786 7.54019C25.4786 8.92604 22.2223 7.91269 22 10.0035C23.1033 10.3439 24.2971 10.5883 25.495 10.5883C29.5334 10.5883 34 8.20909 34 4.48813V4.48412Z" fill="#204023"/>
</svg>
