<svg width="33" height="28" viewBox="0 0 33 28" fill="none" xmlns="http://www.w3.org/2000/svg">
<path d="M30.1672 14.9313C29.7112 14.9313 29.2658 15.0752 28.8779 15.3447C27.9712 15.9754 27.2218 16.3208 26.6557 16.5092C26.6295 17.7103 26.6164 19.0134 26.6164 20.4317V20.5259L26.5928 20.6175C26.5483 20.7876 26.2496 21.6721 24.7375 22.4885C22.9058 23.4776 20.0468 23.9774 16.2445 23.9774C12.4421 23.9774 9.58317 23.475 7.75144 22.4885C6.23941 21.6721 5.94068 20.7876 5.89613 20.6175L5.87254 20.5259V20.4317C5.87254 19.0134 5.85944 17.7103 5.83323 16.5092C5.26721 16.3208 4.51512 15.9754 3.61105 15.3447C3.22322 15.0752 2.77773 14.9313 2.32176 14.9313C1.16612 14.9313 0 15.8681 0 17.9641C0 18.6916 0.212261 21.2429 2.94282 23.5012C5.77034 25.8406 10.2462 27.026 16.2445 27.026C22.2428 27.026 26.7186 25.8406 29.5462 23.5012C32.2767 21.2429 32.489 18.6916 32.489 17.9641C32.489 15.8707 31.3229 14.9313 30.1698 14.9313H30.1672ZM5.17549 23.6085C5.17549 23.6085 2.85373 22.3524 1.80553 19.228C0.757325 16.1036 2.15667 15.4939 2.93496 16.1036C3.4512 16.5092 4.81648 16.9069 5.30651 17.289C5.30651 17.289 2.37942 16.6165 2.37942 17.9824C1.78194 20.9865 5.17811 23.6111 5.17811 23.6111L5.17549 23.6085ZM30.6363 19.228C29.5881 22.3524 27.2637 23.6085 27.2637 23.6085C27.2637 23.6085 30.6599 20.9839 30.0624 17.9798C30.0624 16.6139 27.1353 17.2864 27.1353 17.2864C27.6253 16.9043 28.988 16.5066 29.5068 16.101C30.2851 15.4913 31.6845 16.101 30.6363 19.2254V19.228Z" fill="#597A59"/>
<path d="M16.2454 0C16.2454 0 7.0868 0.133455 5.56166 1.57529C4.61566 2.47023 6.57842 2.94125 6.68062 19.1207C6.68062 21.7794 25.8103 21.7767 25.8103 19.1207C25.9125 2.94125 27.8752 2.47023 26.9292 1.57529C25.4041 0.133455 16.2454 0 16.2454 0ZM16.2454 3.34685C11.6569 3.34685 7.93584 2.69265 7.93584 1.88407C7.93584 1.07549 11.6569 0.4213 16.2454 0.4213C20.8339 0.4213 24.5551 1.07549 24.5551 1.88407C24.5551 2.69265 20.8339 3.34685 16.2454 3.34685Z" fill="#597A59"/>
<path d="M30.1708 14.9313C29.7148 14.9313 29.2693 15.0752 28.8815 15.3447C27.9748 15.9754 27.2254 16.3208 26.6593 16.5092C26.6331 17.7103 26.62 19.0134 26.62 20.4317V20.5259L26.5964 20.6175C26.5519 20.7876 26.2531 21.6721 24.7411 22.4885C24.2851 22.7345 23.7637 22.9517 23.1793 23.1375C22.836 24.5872 22.5871 25.6836 22.4062 26.5157C25.4041 25.961 27.7966 24.9535 29.5524 23.5012C32.2829 21.2429 32.4952 18.6916 32.4952 17.9641C32.4952 15.8707 31.3291 14.9313 30.176 14.9313H30.1708ZM30.6399 19.228C29.5917 22.3524 27.2673 23.6085 27.2673 23.6085C27.2673 23.6085 30.6634 20.9839 30.066 17.9798C30.066 16.6139 27.1389 17.2864 27.1389 17.2864C27.6289 16.9043 28.9916 16.5066 29.5104 16.101C30.2887 15.4913 31.6881 16.101 30.6399 19.2254V19.228Z" fill="#204023"/>
<path d="M26.9327 1.57529C25.4049 0.133455 16.2463 0 16.2463 0C16.2463 0 7.08763 0.133455 5.5625 1.57529C5.36596 1.76109 5.29521 1.92856 5.30569 2.22164C6.0997 3.31283 10.6961 4.1502 16.2463 4.1502C18.5969 4.1502 20.7771 3.99842 22.5669 3.7446C23.4841 8.5202 24.5585 15.7425 23.796 20.4056C25.0354 20.0863 25.8111 19.6598 25.8111 19.1233C25.9133 2.94387 27.8761 2.47285 26.9301 1.57791L26.9327 1.57529ZM16.2489 3.34685C11.6604 3.34685 7.93929 2.69266 7.93929 1.88407C7.93929 1.07549 11.6604 0.4213 16.2489 0.4213C20.8374 0.4213 24.5585 1.07549 24.5585 1.88407C24.5585 2.69266 20.8374 3.34685 16.2489 3.34685Z" fill="#204023"/>
</svg>
