<svg width="34" height="33" viewBox="0 0 34 33" fill="none" xmlns="http://www.w3.org/2000/svg">
<path d="M0 3.98024C0 7.65613 4.45983 10 8.5 10C12.75 10 17 7.03952 17 7.03952C17 7.03952 21.25 10 25.5 10C29.75 10 34 7.65217 34 3.98024C34 1.32806 31.2394 1.12253 31.2394 1.12253C32.3543 2.19367 32.091 3.98024 29.9639 3.98024C27.8369 3.98024 24.4385 0 21.2541 0C18.0697 0 17.0041 2.03952 17.0041 2.03952C17.0041 2.03952 15.9426 0 12.7541 0C9.56559 0 6.16723 3.98024 4.04429 3.98024C1.92135 3.98024 1.65392 2.19367 2.76888 1.12253C2.76888 1.12253 0.00823022 1.32806 0.00823022 3.98024H0Z" fill="#597A59"/>
<path d="M34 3.89586C34 1.20828 31.2377 1 31.2377 1C32.3533 2.08545 32.0899 3.89586 29.9616 3.89586C28.706 3.89586 27.01 2.49399 25.1698 1.34446C24.5564 2.65421 23.6425 4.96128 24.7087 5.15755C26.199 5.43391 30.4803 5.44993 27.8786 6.95194C25.4786 8.33778 22.2223 7.32443 22 9.41522C23.1033 9.75567 24.2971 10 25.495 10C29.5334 10 34 7.62083 34 3.89987V3.89586Z" fill="#204023"/>
<path d="M33.9755 9.58466C33.9426 9.38148 33.918 9.18659 33.8933 9C31.8418 11.1189 28.5938 12.3214 25.4939 12.3214C22.0528 12.3214 18.7144 10.6296 17 9.60124C15.2856 10.6296 11.9513 12.3214 8.50607 12.3214C5.40615 12.3214 2.15411 11.1189 0.10669 9C0.082022 9.19074 0.0573555 9.38148 0.0244652 9.58466C-0.172877 10.8328 0.822054 15.6966 3.06682 20.6724C3.24361 20.038 3.47795 19.6939 3.47795 19.6939C3.52729 22.244 5.54182 25.358 7.56047 27.85C7.30146 26.5812 7.3878 25.5985 7.3878 25.5985C8.00449 27.7505 8.96242 29.293 10.0231 30.3918C10.5206 30.7858 11.0345 31.1465 11.569 31.4616C11.4333 30.7443 11.4127 30.2509 11.4127 30.2509C12.0253 31.3787 16.149 33 16.9959 33C17.8428 33 21.9706 31.3787 22.579 30.2509C22.579 30.2509 22.5626 30.7443 22.4269 31.4616C22.9614 31.1465 23.4753 30.7858 23.9728 30.3918C25.0294 29.2889 25.9914 27.7505 26.6081 25.5985C26.6081 25.5985 26.6944 26.5812 26.4354 27.85C28.4541 25.358 30.4727 22.244 30.522 19.6939C30.522 19.6939 30.7564 20.0422 30.9332 20.6724C33.1779 15.6966 34.1729 10.8328 33.9755 9.58466Z" fill="#597A59"/>
<path d="M29.9573 16.5628C29.9573 16.5628 29.745 15.4047 28.3876 14.9274C27.0302 14.4459 27.7922 19.5265 27.2842 21.5562C26.7763 23.586 24.9901 24.2667 21.5509 26.973C19.4066 28.6624 17.7161 30.7835 17 33C18.1908 32.8049 21.859 31.3231 22.4336 30.2729C22.4336 30.2729 22.4169 30.7669 22.2795 31.4849C22.8208 31.1695 23.3412 30.8084 23.845 30.414C24.9151 29.3099 25.8894 27.77 26.514 25.6157C26.514 25.6157 26.6014 26.5994 26.3391 27.8696C28.3834 25.375 30.4278 22.2577 30.4778 19.7049C30.4778 19.7049 30.7151 20.0536 30.8941 20.6845C33.1675 15.7036 34.1751 10.8347 33.9752 9.58527C33.9419 9.38188 33.9169 9.18679 33.892 9C31.8143 11.1211 28.525 12.3248 25.3856 12.3248C25.0983 12.3248 24.8152 12.3082 24.5321 12.2874C27.38 13.2089 31.298 13.7319 29.9615 16.5628H29.9573Z" fill="#204023"/>
</svg>
