<svg width="32" height="32" viewBox="0 0 32 32" fill="none" xmlns="http://www.w3.org/2000/svg">
<path d="M18.6674 19.3335V16.0002H13.3341V20.0002H10.6674V14.6668C10.6674 14.3132 10.8079 13.9741 11.0579 13.724C11.308 13.474 11.6471 13.3335 12.0007 13.3335H18.6674V10.0002L23.3341 14.6668M28.9474 15.0535L16.9474 3.0535H16.9341C16.8107 2.92989 16.6642 2.83183 16.5029 2.76492C16.3416 2.69801 16.1687 2.66357 15.9941 2.66357C15.8194 2.66357 15.6465 2.69801 15.4852 2.76492C15.3239 2.83183 15.1774 2.92989 15.0541 3.0535L3.05406 15.0535C2.53406 15.5735 2.53406 16.4268 3.05406 16.9468L15.0541 28.9468C15.5741 29.4535 16.4141 29.4668 16.9474 28.9468L28.9474 16.9468C29.4674 16.4268 29.4674 15.5735 28.9474 15.0535Z" fill="white"/>
</svg>
