<svg  viewBox="0 0 128 128" fill="none" xmlns="http://www.w3.org/2000/svg">
<g id="hamburger">
<rect id="Rectangle 92" width="128" height="128" fill="#597A59"/>
<g id="inner">
<path id="Lower" fill-rule="evenodd" clip-rule="evenodd" d="M112 85.334C112 94.1705 104.837 101.334 96 101.334C89.0332 101.334 83.1064 96.8813 80.9101 90.6665H16V82.6665C16 81.1937 17.1939 79.9998 18.6667 79.9998H80.9107C83.1074 73.7859 89.0338 69.334 96 69.334C104.837 69.334 112 76.4974 112 85.334ZM101.339 85.3333C101.339 88.2788 98.9507 90.6667 96.0052 90.6667C93.0597 90.6667 90.6719 88.2788 90.6719 85.3333C90.6719 82.3878 93.0597 80 96.0052 80C98.9507 80 101.339 82.3878 101.339 85.3333Z" fill="white"/>
<path id="Middle" d="M16 69.3335H80V58.6668H16V69.3335Z" fill="white"/>
<path id="Upper" fill-rule="evenodd" clip-rule="evenodd" d="M112 42.666C112 51.5025 104.837 58.666 96 58.666C89.0338 58.666 83.1074 54.2141 80.9107 48.0002H18.6667C17.1939 48.0002 16 46.8063 16 45.3335V37.3335H80.9101C83.1064 31.1187 89.0332 26.666 96 26.666C104.837 26.666 112 33.8295 112 42.666ZM101.339 42.6668C101.339 45.6123 98.9507 48.0002 96.0052 48.0002C93.0597 48.0002 90.6719 45.6123 90.6719 42.6668C90.6719 39.7213 93.0597 37.3335 96.0052 37.3335C98.9507 37.3335 101.339 39.7213 101.339 42.6668Z" fill="white"/>
</g>
</g>
</svg>
