<svg width="512" height="512" viewBox="0 0 512 512" fill="none" xmlns="http://www.w3.org/2000/svg">
<path d="M166.358 42.6641H345.558C413.825 42.6641 469.292 98.1307 469.292 166.397V345.597C469.292 378.414 456.256 409.886 433.051 433.09C409.847 456.295 378.374 469.331 345.558 469.331H166.358C98.0917 469.331 42.625 413.864 42.625 345.597V166.397C42.625 133.581 55.6612 102.109 78.8657 78.9047C102.07 55.7002 133.542 42.6641 166.358 42.6641ZM162.092 85.3307C141.723 85.3307 122.189 93.4221 107.786 107.825C93.3831 122.228 85.2917 141.762 85.2917 162.131V349.864C85.2917 392.317 119.638 426.664 162.092 426.664H349.825C370.194 426.664 389.728 418.573 404.131 404.17C418.534 389.767 426.625 370.233 426.625 349.864V162.131C426.625 119.677 392.278 85.3307 349.825 85.3307H162.092ZM367.958 117.331C375.031 117.331 381.814 120.14 386.815 125.141C391.815 130.142 394.625 136.925 394.625 143.997C394.625 151.07 391.815 157.853 386.815 162.854C381.814 167.855 375.031 170.664 367.958 170.664C360.886 170.664 354.103 167.855 349.102 162.854C344.101 157.853 341.292 151.07 341.292 143.997C341.292 136.925 344.101 130.142 349.102 125.141C354.103 120.14 360.886 117.331 367.958 117.331ZM255.958 149.331C284.248 149.331 311.379 160.569 331.383 180.573C351.387 200.577 362.625 227.708 362.625 255.997C362.625 284.287 351.387 311.418 331.383 331.422C311.379 351.426 284.248 362.664 255.958 362.664C227.669 362.664 200.537 351.426 180.534 331.422C160.53 311.418 149.292 284.287 149.292 255.997C149.292 227.708 160.53 200.577 180.534 180.573C200.537 160.569 227.669 149.331 255.958 149.331ZM255.958 191.997C238.984 191.997 222.706 198.74 210.703 210.743C198.701 222.745 191.958 239.024 191.958 255.997C191.958 272.971 198.701 289.25 210.703 301.252C222.706 313.255 238.984 319.997 255.958 319.997C272.932 319.997 289.211 313.255 301.213 301.252C313.215 289.25 319.958 272.971 319.958 255.997C319.958 239.024 313.215 222.745 301.213 210.743C289.211 198.74 272.932 191.997 255.958 191.997Z" fill="white"/>
</svg>
