<svg width="778" height="594" viewBox="0 0 778 594" fill="none" xmlns="http://www.w3.org/2000/svg">
<g id="Group 376">
<g id="logo" clip-path="url(#clip0_2011_467)">
<g id="text">
<g id="Gentlemens">
<g id="text_2">
<path id="g" d="M37.2197 542.969C30.2793 543.756 24.2281 543.118 19.0879 541.056C13.9476 538.993 9.80504 535.761 6.68185 531.381C3.55865 527.001 1.58497 521.728 0.782481 515.54C0.630659 514.349 0.543904 513.754 0.392082 512.563C-0.453783 506.057 0.0667495 500.167 1.97537 494.873C3.8623 489.578 7.05056 485.241 11.5401 481.838C16.0297 478.436 21.6905 476.353 28.5442 475.566C33.229 475.034 38.0005 475.204 42.8805 476.055C47.7388 476.905 52.1417 478.628 56.024 481.201C56.6963 487.346 57.0216 490.429 57.694 496.574C53.0092 497.063 50.6668 497.318 45.982 497.828C44.6156 494.596 43.9216 492.98 42.5552 489.769C41.3623 488.834 39.7573 488.132 37.7186 487.664C35.6798 487.197 33.4459 487.09 30.995 487.367C27.2429 487.792 24.1847 489.047 21.8857 491.13C19.565 493.214 17.9817 495.914 17.0925 499.253C16.2249 502.591 16.0514 506.355 16.572 510.543C16.7238 511.777 16.7888 512.372 16.9407 513.605C17.4395 517.56 18.524 520.92 20.194 523.684C21.864 526.448 24.0763 528.468 26.7874 529.765C29.4985 531.062 32.7085 531.509 36.4172 531.083C38.3692 530.871 40.2562 530.445 42.1431 529.85C44.0083 529.255 45.4615 528.638 46.4809 528.043C46.0905 524.662 45.8953 522.961 45.5049 519.58C42.425 519.559 40.8635 519.538 37.7836 519.516C37.2848 515.157 37.0245 512.967 36.504 508.608C46.1338 507.524 50.9488 507.014 60.5786 505.993C61.7715 516.88 62.3571 522.323 63.5283 533.231C60.1448 535.889 56.2192 538.036 51.7729 539.652C47.3267 541.268 42.4467 542.374 37.133 542.991L37.2197 542.969Z" fill="white"/>
<path id="e" d="M76.9882 537.759C76.5978 534.06 76.4026 532.21 76.0339 528.51C78.7667 527.66 80.1331 527.234 82.8876 526.363C81.0874 508.651 80.1765 499.805 78.3763 482.093C75.47 481.796 74.0169 481.647 71.1322 481.349C70.7418 477.628 70.5466 475.778 70.1562 472.057C92.1054 469.867 103.102 468.846 125.072 467.039C125.723 474.63 126.048 478.415 126.699 486.006C121.732 486.41 119.238 486.622 114.25 487.069C113.859 484.368 113.664 483.029 113.252 480.328C105.943 480.966 102.299 481.285 95.0117 481.966C95.5322 487.366 95.7925 490.067 96.313 495.468C105.01 494.66 109.37 494.277 118.089 493.533C118.522 498.402 118.739 500.826 119.173 505.674C110.497 506.418 106.16 506.801 97.4842 507.609C98.0915 513.881 98.3951 517.007 99.0024 523.279C106.55 522.578 110.324 522.238 117.893 521.578C117.785 518.729 117.72 517.305 117.611 514.455C122.491 514.03 124.921 513.817 129.801 513.435C130.473 521.174 130.798 525.044 131.471 532.763C109.673 534.57 98.7638 535.548 76.9882 537.738V537.759Z" fill="white"/>
<path id="n" d="M145.021 531.7C144.718 528 144.566 526.15 144.262 522.429C146.995 521.643 148.361 521.239 151.116 520.452C149.706 502.719 149.012 493.852 147.602 476.097C144.739 475.736 143.286 475.545 140.423 475.204C140.12 471.483 139.968 469.612 139.664 465.891C142.505 465.679 143.915 465.551 146.756 465.338C153.502 464.828 156.885 464.573 163.63 464.105C175.906 480.18 181.979 488.26 193.973 504.441H194.255C193.452 491.853 193.04 485.581 192.238 473.014C188.594 472.653 186.772 472.483 183.129 472.143C182.868 468.422 182.76 466.55 182.5 462.829C191.999 462.213 196.749 461.936 206.249 461.383C209.112 461.213 210.543 461.15 213.406 460.979C213.623 464.7 213.731 466.572 213.927 470.314C211.107 471.058 209.697 471.42 206.899 472.164C208.201 494.213 208.873 505.249 210.174 527.298C203.755 527.66 200.566 527.851 194.168 528.255C182.087 512.436 175.971 504.547 163.565 488.855C163.457 488.855 163.392 488.855 163.283 488.855C164.194 501.06 164.65 507.162 165.539 519.389C169.139 519.708 170.961 519.878 174.561 520.218C174.822 523.918 174.952 525.789 175.212 529.489C163.131 530.318 157.08 530.764 145 531.7H145.021Z" fill="white"/>
<path id="t" d="M242.066 525.618C241.892 521.897 241.784 520.047 241.61 516.326C244.408 515.603 245.796 515.263 248.616 514.561C247.813 497.402 247.423 488.833 246.621 471.674C242.37 471.865 240.266 471.971 236.015 472.163C235.993 475.012 235.971 476.437 235.95 479.286C230.961 479.52 228.467 479.647 223.479 479.902C223.066 472.142 222.85 468.25 222.438 460.468C248.052 459.129 260.87 458.597 286.506 457.789C286.767 465.571 286.897 469.462 287.157 477.223C282.104 477.393 279.588 477.478 274.534 477.649C274.274 474.799 274.144 473.396 273.883 470.547C269.611 470.696 267.464 470.781 263.169 470.951C263.863 488.11 264.232 496.7 264.926 513.859C267.767 514.327 269.199 514.561 272.04 515.029C272.192 518.75 272.257 520.6 272.409 524.321C260.263 524.767 254.212 525.022 242.066 525.596V525.618Z" fill="white"/>
<path id="l" d="M298.646 523.493C298.537 519.772 298.472 517.922 298.364 514.201C301.161 513.542 302.55 513.202 305.347 512.564C304.849 494.788 304.61 485.879 304.133 468.103C301.27 467.593 299.838 467.338 296.954 466.849C296.845 463.107 296.78 461.257 296.672 457.514C299.535 457.429 300.966 457.387 303.829 457.323C310.488 457.153 313.806 457.068 320.465 456.919C323.956 456.855 325.692 456.813 329.183 456.749C329.249 460.491 329.292 462.362 329.357 466.083C325.887 466.721 324.152 467.062 320.703 467.699C321.072 484.901 321.267 493.513 321.657 510.714C328.099 510.587 331.309 510.523 337.751 510.417C337.837 506.738 337.881 504.888 337.967 501.21C342.978 501.125 345.472 501.103 350.482 501.04C350.59 509.609 350.634 513.882 350.742 522.43C329.899 522.685 319.489 522.898 298.646 523.493Z" fill="white"/>
<path id="e-2" d="M361.593 522.323C361.572 518.602 361.55 516.752 361.507 513.031C364.305 512.436 365.714 512.117 368.512 511.521C368.404 493.724 368.339 484.837 368.23 467.039C365.367 466.487 363.936 466.189 361.095 465.636C361.051 461.894 361.051 460.023 361.008 456.302C383.044 456.11 394.062 456.11 416.097 456.302C416.032 463.914 415.989 467.72 415.924 475.353C410.936 475.311 408.441 475.289 403.453 475.268C403.323 472.547 403.258 471.186 403.106 468.464C395.775 468.422 392.131 468.422 384.8 468.422C384.8 473.844 384.8 476.565 384.8 481.987C393.541 481.987 397.901 481.987 406.641 482.03C406.619 486.899 406.598 489.344 406.576 494.235C397.879 494.192 393.519 494.171 384.822 494.192C384.822 500.486 384.822 503.633 384.822 509.927C392.392 509.927 396.187 509.927 403.778 509.969C403.93 507.12 404.017 505.695 404.19 502.846C409.07 502.867 411.521 502.889 416.423 502.931C416.358 510.692 416.314 514.583 416.249 522.344C394.387 522.153 383.456 522.153 361.593 522.344V522.323Z" fill="white"/>
<path id="m" d="M429.506 522.471C429.549 518.75 429.593 516.9 429.636 513.179C432.434 512.626 433.844 512.371 436.642 511.818C436.924 494.021 437.075 485.133 437.357 467.336C434.538 466.719 433.128 466.4 430.287 465.784C430.33 462.041 430.374 460.17 430.417 456.449C433.258 456.492 434.69 456.513 437.531 456.556C447.703 456.704 452.8 456.811 462.972 457.045C469.218 474.586 472.298 483.368 478.349 500.952C478.458 500.952 478.523 500.952 478.631 500.952C485.55 483.751 489.042 475.161 496.134 458.001C508.996 458.427 515.437 458.682 528.277 459.256C528.104 462.998 528.017 464.848 527.843 468.59C524.959 469.037 523.527 469.271 520.664 469.739C519.883 487.514 519.515 496.402 518.734 514.178C521.51 514.88 522.898 515.22 525.674 515.922C525.501 519.643 525.414 521.492 525.241 525.213C513.16 524.682 507.109 524.448 495.028 524.023C495.158 520.302 495.223 518.452 495.353 514.731C498.281 514.242 499.756 514.008 502.706 513.54C502.836 510.096 502.901 508.373 503.031 504.929C503.66 492.511 503.964 486.324 504.593 473.906C504.484 473.885 504.419 473.864 504.311 473.842C495.787 493.723 491.58 503.695 483.294 523.64C478.176 523.491 475.617 523.406 470.498 523.279C463.297 503.121 459.632 493.064 452.171 472.97C452.041 472.97 451.976 472.992 451.846 473.013C452.062 484.346 452.171 490.002 452.366 501.314C452.279 505.63 452.236 507.778 452.149 512.094C455.294 512.732 456.856 513.072 459.979 513.71C459.892 517.431 459.849 519.281 459.762 523.002C447.66 522.726 441.608 522.619 429.484 522.449L429.506 522.471Z" fill="white"/>
<path id="e-3" d="M535.594 525.682C535.767 521.961 535.876 520.111 536.049 516.39C538.89 515.944 540.3 515.731 543.141 515.285C544.052 497.509 544.508 488.621 545.419 470.867C542.599 470.144 541.19 469.782 538.37 469.081C538.543 465.359 538.652 463.488 538.825 459.746C560.84 460.788 571.858 461.405 593.85 462.829C593.351 470.42 593.091 474.226 592.57 481.838C587.582 481.519 585.088 481.37 580.121 481.052C580.121 478.33 580.143 476.969 580.164 474.247C572.855 473.801 569.19 473.588 561.881 473.184C561.577 478.606 561.425 481.307 561.122 486.729C569.84 487.197 574.222 487.452 582.941 488.004C582.637 492.874 582.463 495.298 582.16 500.167C573.462 499.635 569.125 499.38 560.427 498.912C560.08 505.206 559.885 508.332 559.538 514.626C567.108 515.03 570.882 515.264 578.451 515.71C578.776 512.882 578.95 511.457 579.275 508.63C584.155 508.927 586.606 509.076 591.486 509.395C590.965 517.135 590.705 521.004 590.185 528.765C568.366 527.341 557.434 526.745 535.594 525.704V525.682Z" fill="white"/>
<path id="n-2" d="M603.742 529.658C604.002 525.958 604.133 524.087 604.415 520.387C607.234 520.005 608.644 519.813 611.485 519.431C612.808 501.676 613.459 492.809 614.782 475.076C612.006 474.289 610.596 473.907 607.82 473.141C608.08 469.42 608.232 467.549 608.492 463.828C611.333 464.019 612.743 464.126 615.584 464.317C622.33 464.806 625.713 465.04 632.458 465.572C642.153 483.262 646.925 492.15 656.316 509.905C656.424 509.905 656.489 509.905 656.598 509.926C657.704 497.381 658.268 491.108 659.396 478.585C655.86 477.692 654.082 477.266 650.525 476.373C650.85 472.652 651.002 470.781 651.328 467.06C660.806 467.847 665.555 468.251 675.033 469.123C677.896 469.378 679.306 469.505 682.169 469.782C681.822 473.503 681.627 475.353 681.28 479.074C678.373 479.393 676.942 479.541 674.036 479.86C671.975 501.867 670.934 512.86 668.874 534.846C662.476 534.272 659.287 533.996 652.889 533.443C643.346 516.029 638.488 507.332 628.641 490.003C628.532 490.003 628.467 490.003 628.359 490.003C627.405 502.208 626.906 508.31 625.952 520.515C629.465 521.366 631.222 521.791 634.736 522.663C634.432 526.362 634.28 528.212 633.976 531.933C621.896 530.976 615.866 530.53 603.764 529.701L603.742 529.658Z" fill="white"/>
<path id="apros" d="M699.184 493.575C696.256 491.789 694.803 490.896 691.875 489.131C693.155 487.196 694.196 485.134 695.02 482.944C695.844 480.754 696.408 478.181 696.712 475.204C697.059 471.717 697.232 469.973 697.601 466.486C702.806 466.997 705.409 467.252 710.592 467.783C710.224 471.292 710.029 473.057 709.66 476.586C709.443 478.606 708.814 480.669 707.773 482.816C706.732 484.964 705.452 486.984 703.934 488.855C702.416 490.747 700.854 492.321 699.206 493.575H699.184Z" fill="white"/>
<path id="s" d="M745.945 543.735C740.479 543.097 735.686 542.055 731.543 540.545C727.422 539.057 723.41 536.675 719.484 533.401C720.243 526.575 720.612 523.173 721.371 516.369C726.425 516.901 728.941 517.177 733.973 517.73C734.124 521.281 734.211 523.067 734.363 526.618C735.23 527.809 736.879 528.914 739.286 529.935C741.694 530.956 744.383 531.636 747.355 531.976C749.415 532.21 751.172 532.168 752.625 531.827C754.078 531.487 755.206 530.892 756.03 530.02C756.854 529.148 757.353 528.021 757.527 526.682C757.678 525.385 757.505 524.194 756.963 523.088C756.42 521.983 755.444 520.898 754.035 519.793C752.625 518.708 750.695 517.517 748.244 516.263C742.648 513.796 738.093 511.436 734.58 509.161C731.066 506.886 728.529 504.377 727.01 501.634C725.47 498.891 724.907 495.617 725.34 491.832C725.752 488.196 727.184 485.134 729.656 482.646C732.129 480.158 735.361 478.351 739.33 477.203C743.32 476.055 747.767 475.736 752.69 476.204C758.286 476.735 763.187 477.841 767.33 479.542C771.494 481.243 775.051 483.497 778.044 486.303C777.242 492.619 776.83 495.787 776.005 502.102C771.147 501.506 768.718 501.209 763.838 500.635C763.513 497.041 763.339 495.234 763.014 491.619C762.016 490.981 760.563 490.343 758.633 489.684C756.702 489.025 754.642 488.579 752.43 488.323C750.521 488.111 748.786 488.153 747.246 488.451C745.706 488.77 744.448 489.344 743.472 490.216C742.496 491.088 741.932 492.236 741.759 493.682C741.629 494.851 741.867 495.936 742.475 496.935C743.082 497.934 744.231 498.997 745.945 500.103C747.637 501.23 750.044 502.57 753.145 504.143C760.606 507.226 766.115 510.671 769.694 514.456C773.273 518.219 774.682 522.939 773.945 528.574C773.446 532.444 771.95 535.591 769.434 538.057C766.94 540.503 763.665 542.204 759.652 543.182C755.64 544.139 751.063 544.33 745.966 543.735H745.945Z" fill="white"/>
</g>
<g id="shadow">
<path id="s_2" d="M745.986 543.736C751.082 544.331 755.637 544.14 759.671 543.183C763.684 542.226 766.959 540.504 769.453 538.058C771.947 535.613 773.465 532.445 773.964 528.575C774.289 526.024 774.116 523.685 773.574 521.516C766.568 520.453 759.389 519.411 752.037 518.412C752.796 518.879 753.512 519.368 754.097 519.815C755.507 520.899 756.483 522.005 757.025 523.111C757.567 524.216 757.741 525.407 757.589 526.704C757.416 528.065 756.917 529.171 756.093 530.042C755.268 530.914 754.119 531.531 752.687 531.85C751.234 532.19 749.477 532.232 747.417 531.999C744.446 531.658 741.778 530.978 739.349 529.957C736.941 528.937 735.293 527.831 734.425 526.64C734.274 523.089 734.187 521.303 734.035 517.752C729.003 517.2 726.466 516.923 721.434 516.392C720.675 523.217 720.306 526.619 719.547 533.423C723.451 536.698 727.463 539.079 731.606 540.567C735.727 542.056 740.52 543.119 746.007 543.757L745.986 543.736Z" fill="#CCCCCC"/>
<g id="n-2_2">
<path id="Vector" d="M634.722 522.621C631.208 521.771 629.451 521.324 625.938 520.474C626.393 514.648 626.74 510.225 627.087 505.845C622.272 505.505 617.436 505.165 612.577 504.846C612.252 509.205 611.905 513.861 611.493 519.411C608.673 519.794 607.242 519.985 604.422 520.368C604.162 524.067 604.032 525.939 603.75 529.638C615.831 530.468 621.882 530.914 633.963 531.871C634.266 528.171 634.418 526.321 634.722 522.6V522.621Z" fill="#CCCCCC"/>
<path id="Vector_2" d="M652.899 533.445C659.298 533.998 662.486 534.274 668.884 534.848C669.838 524.77 670.554 517.009 671.27 509.439C666.477 509.014 661.64 508.588 656.782 508.184C656.738 508.78 656.673 509.311 656.63 509.928C656.521 509.928 656.456 509.928 656.348 509.907C656.001 509.248 655.697 508.695 655.372 508.057C649.668 507.589 643.899 507.121 638.086 506.675C642.771 515.031 646.913 522.516 652.899 533.445Z" fill="#CCCCCC"/>
</g>
<path id="e-3_2" d="M591.492 509.376C586.612 509.057 584.161 508.908 579.281 508.61C578.956 511.438 578.782 512.863 578.457 515.691C570.888 515.223 567.114 515.01 559.544 514.606C559.848 509.397 560.021 506.335 560.26 501.87C554.816 501.615 549.351 501.36 543.863 501.104C543.646 505.357 543.408 509.907 543.126 515.287C540.285 515.733 538.875 515.946 536.034 516.393C535.86 520.114 535.752 521.963 535.578 525.684C557.419 526.726 568.328 527.322 590.169 528.746C590.689 521.007 590.95 517.137 591.47 509.376H591.492Z" fill="#CCCCCC"/>
<g id="m_2">
<path id="Vector_3" d="M459.985 513.731C456.862 513.072 455.3 512.753 452.155 512.115C452.242 507.799 452.285 505.651 452.372 501.335C452.372 500.272 452.329 499.294 452.307 498.316C447.145 498.231 441.983 498.146 436.821 498.061C436.756 502.207 436.691 506.629 436.604 511.839C433.807 512.37 432.397 512.647 429.599 513.2C429.556 516.921 429.512 518.771 429.469 522.492C441.571 522.662 447.622 522.768 459.746 523.044C459.833 519.323 459.876 517.474 459.963 513.753L459.985 513.731Z" fill="#CCCCCC"/>
<path id="Vector_4" d="M503.303 499.572C503.216 501.252 503.129 503.017 503.042 504.952C502.912 508.396 502.847 510.119 502.717 513.563C499.767 514.031 498.314 514.265 495.364 514.754C495.234 518.475 495.169 520.325 495.039 524.046C507.12 524.45 513.171 524.705 525.252 525.237C525.425 521.516 525.512 519.666 525.685 515.945C522.909 515.243 521.521 514.882 518.745 514.201C518.984 508.864 519.179 504.356 519.352 500.146C514.038 499.955 508.703 499.764 503.346 499.594L503.303 499.572Z" fill="#CCCCCC"/>
<path id="Vector_5" d="M470.475 523.301C475.593 523.429 478.153 523.514 483.271 523.663C487.305 513.924 490.385 506.567 493.465 499.274C488.802 499.146 484.117 499.019 479.411 498.891C479.129 499.593 478.868 500.231 478.565 500.975C478.456 500.975 478.391 500.975 478.283 500.975C478.023 500.231 477.806 499.572 477.545 498.849C472.21 498.721 466.875 498.594 461.539 498.487C464.25 505.908 466.94 513.393 470.475 523.301Z" fill="#CCCCCC"/>
</g>
<path id="e-2_2" d="M361.61 522.324C383.473 522.133 394.404 522.133 416.266 522.324C416.331 514.563 416.375 510.672 416.44 502.911C411.56 502.869 409.109 502.847 404.207 502.826C404.034 505.675 403.969 507.1 403.795 509.949C396.226 509.907 392.43 509.907 384.839 509.907C384.839 504.889 384.839 501.848 384.839 497.659C379.373 497.659 373.908 497.659 368.442 497.68C368.464 501.827 368.507 506.271 368.529 511.501C365.731 512.097 364.321 512.394 361.523 513.011C361.567 516.732 361.567 518.582 361.61 522.303V522.324Z" fill="#CCCCCC"/>
<path id="l_2" d="M298.667 523.494C319.509 522.899 329.92 522.686 350.763 522.431C350.655 513.862 350.611 509.588 350.503 501.04C345.493 501.104 342.999 501.125 337.988 501.211C337.902 504.889 337.858 506.739 337.771 510.417C331.33 510.524 328.12 510.587 321.678 510.715C321.57 505.995 321.483 501.955 321.396 498.17C315.909 498.255 310.444 498.361 305 498.468C305.108 502.699 305.238 507.207 305.39 512.565C302.592 513.224 301.204 513.543 298.406 514.202C298.515 517.923 298.58 519.773 298.688 523.494H298.667Z" fill="#CCCCCC"/>
<path id="t_2" d="M242.096 525.62C254.242 525.046 260.293 524.79 272.439 524.344C272.287 520.623 272.222 518.773 272.07 515.052C269.229 514.584 267.797 514.35 264.956 513.882C264.739 508.397 264.544 503.804 264.371 499.509C258.883 499.679 253.418 499.87 247.974 500.062C248.169 504.399 248.386 509.013 248.646 514.563C245.848 515.265 244.438 515.626 241.641 516.328C241.814 520.049 241.923 521.899 242.096 525.62Z" fill="#CCCCCC"/>
<g id="n_2">
<path id="Vector_6" d="M194.174 528.236C200.572 527.832 203.782 527.64 210.18 527.279C209.573 517.136 209.117 509.333 208.662 501.721C203.804 501.955 198.945 502.188 194.13 502.444C194.174 503.103 194.217 503.719 194.261 504.421H193.979C193.48 503.762 193.046 503.167 192.569 502.529C186.713 502.848 180.9 503.167 175.109 503.507C181.161 511.246 186.453 518.136 194.174 528.236Z" fill="#CCCCCC"/>
<path id="Vector_7" d="M145.017 531.701C157.098 530.766 163.127 530.319 175.229 529.49C174.969 525.79 174.839 523.919 174.579 520.22C170.978 519.879 169.178 519.709 165.556 519.39C165.101 513.309 164.775 508.738 164.428 504.166C159.57 504.464 154.712 504.783 149.897 505.102C150.266 509.673 150.634 514.564 151.111 520.432C148.379 521.219 147.012 521.623 144.258 522.41C144.561 526.109 144.713 527.959 145.017 531.68V531.701Z" fill="#CCCCCC"/>
</g>
<path id="e_2" d="M76.9934 537.762C98.769 535.572 109.657 534.594 131.476 532.786C130.803 525.047 130.478 521.177 129.806 513.458C124.926 513.862 122.497 514.075 117.617 514.479C117.725 517.328 117.79 518.753 117.899 521.602C110.351 522.261 106.555 522.601 99.0075 523.303C98.4653 517.583 98.1617 514.458 97.6411 509.185C92.1322 509.674 86.6666 510.184 81.2878 510.694C81.7649 515.372 82.2638 520.348 82.8927 526.386C80.1599 527.237 78.7719 527.662 76.0391 528.534C76.4295 532.234 76.6247 534.083 76.9934 537.783V537.762Z" fill="#CCCCCC"/>
<path id="g_2" d="M6.68981 531.382C9.813 535.762 13.9556 538.994 19.0958 541.056C24.2361 543.119 30.2656 543.757 37.2277 542.97C42.5415 542.375 47.4214 541.269 51.8677 539.632C56.3139 538.016 60.2179 535.868 63.623 533.21C62.7121 524.811 62.1482 519.623 61.3891 512.713C53.2341 513.585 45.2309 514.478 37.3795 515.435C37.5313 516.647 37.6615 517.901 37.8567 519.496C40.9582 519.496 42.4981 519.517 45.5779 519.56C45.9683 522.94 46.1635 524.641 46.5539 528.022C45.5345 528.618 44.0814 529.213 42.2161 529.829C40.3509 530.425 38.4423 530.85 36.4903 531.063C32.7815 531.488 29.5715 531.063 26.8604 529.744C24.1276 528.447 21.9371 526.427 20.267 523.663C19.2476 521.984 18.5319 520.027 17.9463 517.901C12.4374 518.645 7.01514 519.389 1.67969 520.176C2.72075 524.407 4.39079 528.15 6.7115 531.382H6.68981Z" fill="#CCCCCC"/>
</g>
</g>
<g id="Barberclub">
<path id="circle-right" d="M546.428 581.709C548.74 581.709 550.614 579.872 550.614 577.606C550.614 575.339 548.74 573.502 546.428 573.502C544.116 573.502 542.242 575.339 542.242 577.606C542.242 579.872 544.116 581.709 546.428 581.709Z" fill="white"/>
<path id="circle-left" d="M230.366 581.709C232.677 581.709 234.552 579.872 234.552 577.606C234.552 575.339 232.677 573.502 230.366 573.502C228.054 573.502 226.18 575.339 226.18 577.606C226.18 579.872 228.054 581.709 230.366 581.709Z" fill="white"/>
<g id="Text">
<g id="barberclub">
<path id="Vector_8" d="M271.222 578.518C270.484 577.923 269.552 577.519 268.402 577.263C269.747 576.711 270.744 575.924 271.395 574.861C272.046 573.798 272.371 572.607 272.371 571.267C272.371 568.673 271.352 566.717 269.313 565.42C267.274 564.102 264.433 563.464 260.789 563.464H247.711V567.461L250.704 568.078V587.172L247.711 587.789V591.786H262.264C265.865 591.786 268.597 591.084 270.506 589.66C272.415 588.235 273.347 586.151 273.347 583.366C273.347 582.388 273.174 581.495 272.827 580.644C272.48 579.794 271.937 579.092 271.222 578.497V578.518ZM257.688 568.673H260.811C262.351 568.673 263.522 568.95 264.281 569.481C265.04 570.013 265.431 570.885 265.431 572.054C265.431 573.139 265.019 573.925 264.216 574.436C263.414 574.946 262.177 575.201 260.529 575.201H257.709V568.673H257.688ZM265.387 585.79C264.693 586.321 263.652 586.598 262.286 586.598H257.709V579.73H262.633C263.522 579.73 264.26 579.858 264.823 580.134C265.387 580.41 265.799 580.793 266.06 581.346C266.32 581.899 266.45 582.558 266.45 583.387C266.45 584.472 266.103 585.28 265.409 585.811L265.387 585.79Z" fill="white"/>
<path id="Vector_9" d="M292.519 563.443H284.971L276.361 587.492L274.344 587.789V591.787H285.166V587.789L283.28 587.449L284.104 584.366H293.387L294.254 587.449L292.367 587.789V591.787H303.168V587.789L301.151 587.492L292.519 563.443ZM285.579 579.582L288.311 571.098L288.658 570.014H288.767L289.092 571.013L291.912 579.603H285.579V579.582Z" fill="white"/>
<path id="Vector_10" d="M325.363 579.816C326.621 579.008 327.705 578.051 328.486 576.839C329.397 575.414 329.874 573.862 329.874 572.203C329.874 570.396 329.419 568.844 328.508 567.526C327.597 566.207 326.296 565.187 324.626 564.485C322.955 563.762 320.96 563.422 318.683 563.422H304.477V567.441L307.47 568.057V587.151L304.477 587.768V591.765H317.425V587.768L314.432 587.151V581.495L319.182 581.559L322.782 591.765H331.197V587.789L328.464 587.109L325.428 579.794L325.363 579.816ZM314.388 576.265V568.653H318.639C320.006 568.653 321.069 569.014 321.806 569.758C322.543 570.502 322.912 571.459 322.912 572.671C322.912 573.883 322.543 574.734 321.828 575.35C321.112 575.967 320.071 576.265 318.704 576.265H314.388Z" fill="white"/>
<path id="Vector_11" d="M356.112 578.518C355.375 577.923 354.442 577.519 353.293 577.263C354.637 576.711 355.635 575.924 356.286 574.861C356.936 573.798 357.262 572.607 357.262 571.267C357.262 568.673 356.242 566.717 354.204 565.42C352.165 564.102 349.324 563.464 345.68 563.464H332.602V567.461L335.595 568.078V587.172L332.602 587.789V591.786H347.155C350.755 591.786 353.488 591.084 355.397 589.66C357.283 588.256 358.238 586.151 358.238 583.366C358.238 582.388 358.064 581.495 357.717 580.644C357.37 579.794 356.828 579.092 356.112 578.497V578.518ZM342.578 568.673H345.702C347.242 568.673 348.413 568.95 349.172 569.481C349.931 570.013 350.321 570.885 350.321 572.054C350.321 573.139 349.909 573.925 349.107 574.436C348.304 574.946 347.068 575.201 345.42 575.201H342.6V568.673H342.578ZM350.278 585.79C349.584 586.321 348.543 586.598 347.176 586.598H342.6V579.73H347.523C348.413 579.73 349.15 579.858 349.714 580.134C350.278 580.41 350.69 580.793 350.95 581.346C351.211 581.899 351.341 582.558 351.341 583.387C351.341 584.472 350.994 585.28 350.3 585.811L350.278 585.79Z" fill="white"/>
<path id="Vector_12" d="M377.594 586.492H369.526V579.752H378.743V574.521H369.526V568.695H377.225L377.377 571.608H382.647V563.443H359.57V567.462L362.563 568.079V587.151L359.57 587.789V591.766H382.951V583.452H377.767L377.594 586.492Z" fill="white"/>
<path id="Vector_13" d="M406.519 579.817C407.777 579.009 408.862 578.052 409.642 576.84C410.553 575.415 411.03 573.863 411.03 572.204C411.03 570.397 410.575 568.845 409.664 567.527C408.753 566.208 407.452 565.188 405.782 564.486C404.112 563.784 402.116 563.423 399.839 563.423H385.633V567.442L388.626 568.058V587.152L385.633 587.769V591.766H398.581V587.769L395.588 587.152V581.496L400.338 581.56L403.938 591.766H412.353V587.79L409.621 587.11L406.584 579.795L406.519 579.817ZM395.545 576.266V568.654H399.796C401.162 568.654 402.225 569.015 402.962 569.759C403.7 570.503 404.068 571.46 404.068 572.672C404.068 573.884 403.7 574.735 402.984 575.351C402.268 575.968 401.227 576.266 399.861 576.266H395.545Z" fill="white"/>
<path id="Vector_14" d="M442.658 586.153C441.899 586.43 441.118 586.642 440.316 586.812C439.513 586.983 438.711 587.046 437.93 587.046C436.455 587.046 435.176 586.685 434.048 585.941C432.92 585.196 432.052 584.176 431.445 582.857C430.816 581.539 430.512 580.008 430.512 578.286V576.946C430.512 575.097 430.816 573.523 431.423 572.205C432.031 570.886 432.877 569.908 433.983 569.228C435.089 568.548 436.368 568.207 437.843 568.207C438.494 568.207 439.101 568.271 439.665 568.377C440.229 568.484 440.75 568.654 441.248 568.888C441.747 569.122 442.224 569.377 442.658 569.675L443.352 573.863H448.406V566.57C446.844 565.294 445.152 564.401 443.331 563.87C441.509 563.338 439.6 563.083 437.583 563.083C434.698 563.083 432.204 563.678 430.122 564.869C428.018 566.06 426.413 567.697 425.285 569.781C424.158 571.865 423.594 574.289 423.594 577.01V578.307C423.594 581.263 424.201 583.772 425.437 585.856C426.674 587.939 428.365 589.513 430.512 590.597C432.66 591.682 435.132 592.234 437.865 592.234C440.186 592.234 442.246 591.937 444.046 591.363C445.846 590.789 447.3 590.108 448.449 589.321V582.177H443.374L442.68 586.174L442.658 586.153Z" fill="white"/>
<path id="Vector_15" d="M467.127 586.535H460.252V568.079L463.917 567.462V563.443H460.252H453.29H450.297V567.462L453.29 568.079V587.151L450.297 587.789V591.766H472.615V582.58H467.279L467.127 586.535Z" fill="white"/>
<path id="Vector_16" d="M489.396 567.461L492.367 568.078V581.984C492.367 583.132 492.172 584.068 491.76 584.812C491.348 585.556 490.763 586.109 489.982 586.47C489.201 586.832 488.225 587.023 487.054 587.023C485.883 587.023 484.972 586.832 484.191 586.47C483.41 586.109 482.803 585.556 482.391 584.812C481.979 584.068 481.783 583.132 481.783 581.984V568.078L484.776 567.461V563.464H471.828V567.461L474.8 568.078V581.984C474.8 584.174 475.298 586.024 476.318 587.555C477.337 589.086 478.747 590.234 480.59 590.999C482.434 591.765 484.603 592.169 487.097 592.169C489.591 592.169 491.673 591.765 493.495 590.978C495.317 590.191 496.77 589.022 497.79 587.491C498.809 585.96 499.33 584.131 499.33 581.984V568.078L502.323 567.461V563.464H489.374V567.461H489.396Z" fill="white"/>
<path id="Vector_17" d="M528.569 580.645C528.222 579.816 527.68 579.093 526.964 578.498C526.248 577.902 525.294 577.498 524.144 577.243C525.489 576.69 526.487 575.903 527.137 574.84C527.788 573.777 528.113 572.586 528.113 571.247C528.113 568.653 527.094 566.697 525.055 565.4C523.016 564.103 520.175 563.443 516.531 563.443H503.453V567.441L506.446 568.057V587.151L503.453 587.768V591.766H518.006C521.607 591.766 524.339 591.064 526.248 589.639C528.135 588.236 529.089 586.131 529.089 583.345C529.089 582.367 528.916 581.474 528.569 580.624V580.645ZM513.43 568.653H516.553C518.093 568.653 519.264 568.929 520.023 569.461C520.783 569.992 521.173 570.864 521.173 572.034C521.173 573.118 520.761 573.905 519.958 574.415C519.156 574.925 517.92 575.181 516.271 575.181H513.452V568.653H513.43ZM521.13 585.769C520.435 586.301 519.394 586.577 518.028 586.577H513.452V579.709H518.375C519.264 579.709 520.002 579.837 520.566 580.113C521.13 580.39 521.542 580.773 521.802 581.325C522.062 581.878 522.192 582.537 522.192 583.367C522.192 584.451 521.845 585.259 521.151 585.791L521.13 585.769Z" fill="white"/>
</g>
<g id="est">
<path id="Vector_18" d="M158.805 587.236V585.578L161.017 585.216V570.034L158.805 569.673V567.993H173.358V572.628H171.232L170.929 570.013H163.663V576.286H170.907V578.327H163.663V585.301H171.363L171.666 582.643H173.792V587.257H158.826L158.805 587.236Z" fill="white"/>
<path id="Vector_19" d="M183.521 587.514C182.328 587.514 181.179 587.344 180.073 587.003C178.967 586.663 177.904 586.132 176.906 585.409V581.284H178.967L179.422 584.324C180.008 584.686 180.637 584.941 181.331 585.154C182.025 585.345 182.762 585.451 183.543 585.451C184.432 585.451 185.213 585.324 185.82 585.047C186.428 584.771 186.926 584.409 187.252 583.92C187.577 583.453 187.751 582.878 187.751 582.262C187.751 581.666 187.599 581.156 187.317 580.71C187.035 580.263 186.558 579.859 185.885 579.519C185.235 579.179 184.324 578.881 183.174 578.626C181.83 578.307 180.68 577.903 179.747 577.393C178.815 576.882 178.121 576.244 177.622 575.521C177.145 574.777 176.906 573.948 176.906 572.991C176.906 571.992 177.188 571.077 177.73 570.291C178.273 569.504 179.032 568.866 180.008 568.42C180.984 567.952 182.112 567.739 183.413 567.739C184.779 567.739 186.016 567.952 187.057 568.356C188.119 568.76 188.987 569.27 189.659 569.844V573.693H187.599L187.143 570.95C186.731 570.631 186.232 570.376 185.625 570.163C185.018 569.951 184.28 569.844 183.391 569.844C182.632 569.844 181.96 569.972 181.396 570.227C180.81 570.482 180.376 570.844 180.051 571.311C179.726 571.779 179.574 572.332 179.574 572.97C179.574 573.523 179.726 574.012 180.008 574.416C180.29 574.841 180.767 575.203 181.439 575.5C182.112 575.798 182.979 576.117 184.085 576.372C186.146 576.882 187.729 577.626 188.792 578.605C189.854 579.583 190.397 580.795 190.397 582.241C190.397 583.282 190.115 584.197 189.551 584.983C188.987 585.791 188.184 586.408 187.165 586.855C186.146 587.301 184.931 587.535 183.521 587.535V587.514Z" fill="white"/>
<path id="Vector_20" d="M197.524 587.236V585.578L199.715 585.216V569.971H195.269L194.878 572.65H192.883V568.015H209.215V572.65H207.241L206.829 569.971H202.383V585.216L204.573 585.578V587.236H197.524Z" fill="white"/>
<path id="Vector_21" d="M209.625 587.238V584.559H212.271V587.238H209.625Z" fill="white"/>
</g>
<g id="2015">
<path id="Vector_22" d="M564.812 587.24V585.454L571.254 578.437C572.013 577.608 572.62 576.885 573.054 576.29C573.488 575.694 573.791 575.163 573.965 574.674C574.138 574.185 574.225 573.696 574.225 573.164C574.225 572.207 573.921 571.399 573.336 570.74C572.75 570.081 571.904 569.762 570.777 569.762C569.649 569.762 568.738 570.102 568.087 570.783C567.437 571.463 567.111 572.42 567.111 573.674H564.552V573.589C564.509 572.484 564.747 571.484 565.246 570.591C565.745 569.698 566.482 568.996 567.437 568.486C568.391 567.976 569.54 567.721 570.863 567.721C572.1 567.721 573.162 567.955 574.073 568.422C574.963 568.89 575.657 569.528 576.134 570.315C576.611 571.123 576.871 572.037 576.871 573.079C576.871 573.781 576.719 574.482 576.437 575.184C576.155 575.886 575.743 576.587 575.201 577.332C574.659 578.054 574.008 578.841 573.249 579.649L568.087 585.156V585.22H575.093L575.31 583.009H577.565V587.261H564.834L564.812 587.24Z" fill="white"/>
<path id="Vector_23" d="M586.659 587.513C584.728 587.513 583.21 586.854 582.082 585.536C580.955 584.217 580.391 582.346 580.391 579.88V575.308C580.391 572.863 580.955 570.971 582.061 569.652C583.167 568.334 584.707 567.675 586.615 567.675C588.524 567.675 590.086 568.334 591.213 569.652C592.341 570.971 592.905 572.863 592.905 575.308V579.88C592.905 582.346 592.341 584.217 591.235 585.536C590.129 586.854 588.589 587.492 586.659 587.492V587.513ZM586.659 585.472C587.83 585.472 588.719 585.047 589.348 584.196C589.955 583.346 590.259 582.091 590.259 580.411V574.755C590.259 573.097 589.955 571.842 589.326 570.992C588.698 570.141 587.808 569.737 586.637 569.737C585.466 569.737 584.598 570.163 583.969 570.992C583.362 571.842 583.058 573.097 583.058 574.755V580.411C583.058 582.07 583.362 583.346 583.991 584.196C584.62 585.047 585.509 585.472 586.659 585.472Z" fill="white"/>
<path id="Vector_24" d="M596.167 587.235V585.577L599.203 585.215V570.778L596.102 570.82V569.204L601.849 567.992V585.215L604.864 585.577V587.235H596.145H596.167Z" fill="white"/>
<path id="Vector_25" d="M612.957 587.512C611.851 587.512 610.854 587.321 609.986 586.917C609.119 586.513 608.424 585.939 607.926 585.152C607.427 584.365 607.188 583.408 607.232 582.239V582.154H609.661C609.661 583.196 609.964 584.004 610.593 584.578C611.201 585.152 612.003 585.45 612.979 585.45C614.107 585.45 614.975 585.067 615.604 584.28C616.232 583.493 616.536 582.43 616.536 581.091C616.536 579.857 616.232 578.837 615.604 578.05C614.975 577.263 614.107 576.859 613.001 576.859C611.96 576.859 611.201 577.008 610.724 577.327C610.246 577.646 609.899 578.114 609.682 578.752L607.47 578.518L608.598 567.95H618.965V571.756H616.97L616.71 570.268H610.832L610.203 575.669C610.485 575.456 610.767 575.286 611.092 575.137C611.396 574.988 611.743 574.861 612.133 574.754C612.502 574.669 612.914 574.605 613.348 574.605C614.562 574.605 615.603 574.861 616.471 575.371C617.339 575.903 618.011 576.647 618.488 577.625C618.965 578.603 619.182 579.751 619.182 581.069C619.182 582.388 618.944 583.472 618.466 584.45C617.989 585.407 617.295 586.151 616.384 586.683C615.473 587.214 614.324 587.491 612.979 587.491L612.957 587.512Z" fill="white"/>
</g>
</g>
</g>
</g>
<g id="Main">
<g id="inner-main">
<path id="lower-hat" d="M500.768 121.325C496.994 121.325 493.307 122.495 490.097 124.685C482.593 129.809 476.39 132.616 471.705 134.147C471.488 143.906 471.379 154.495 471.379 166.02V166.785L471.184 167.529C470.816 168.912 468.343 176.098 455.829 182.732C440.668 190.77 417.006 194.831 385.535 194.831C354.065 194.831 330.402 190.749 315.242 182.732C302.727 176.098 300.255 168.912 299.886 167.529L299.691 166.785V166.02C299.691 154.495 299.582 143.906 299.365 134.147C294.68 132.616 288.456 129.809 280.973 124.685C277.763 122.495 274.076 121.325 270.302 121.325C260.737 121.325 251.086 128.937 251.086 145.969C251.086 151.88 252.843 172.611 275.443 190.961C298.845 209.97 335.889 219.602 385.535 219.602C435.181 219.602 472.225 209.97 495.628 190.961C518.227 172.611 519.984 151.88 519.984 145.969C519.984 128.959 510.333 121.325 500.79 121.325H500.768ZM293.921 191.833C293.921 191.833 274.705 181.627 266.03 156.239C257.354 130.851 268.936 125.897 275.377 130.851C279.65 134.147 290.95 137.379 295.006 140.483C295.006 140.483 270.779 135.018 270.779 146.118C265.834 170.528 293.943 191.854 293.943 191.854L293.921 191.833ZM504.65 156.239C495.975 181.627 476.737 191.833 476.737 191.833C476.737 191.833 504.845 170.506 499.9 146.096C499.9 134.997 475.674 140.462 475.674 140.462C479.73 137.357 491.008 134.125 495.302 130.83C501.744 125.875 513.326 130.83 504.65 156.218V156.239Z" fill="white"/>
<path id="mustache" d="M295.969 264.51C295.969 284.285 319.479 296.894 340.778 296.894C363.182 296.894 385.587 280.968 385.587 280.968C385.587 280.968 407.992 296.894 430.396 296.894C452.801 296.894 475.205 284.264 475.205 264.51C475.205 250.243 460.652 249.137 460.652 249.137C466.53 254.9 465.142 264.51 453.929 264.51C442.715 264.51 424.8 243.099 408.013 243.099C391.226 243.099 385.609 254.07 385.609 254.07C385.609 254.07 380.013 243.099 363.204 243.099C346.395 243.099 328.48 264.51 317.289 264.51C306.097 264.51 304.688 254.9 310.565 249.137C310.565 249.137 296.012 250.243 296.012 264.51H295.969Z" fill="white"/>
<path id="beard" d="M475.071 293.301C474.898 292.259 474.768 291.26 474.638 290.303C463.815 301.168 446.681 307.334 430.327 307.334C412.174 307.334 394.562 298.659 385.518 293.386C376.474 298.659 358.884 307.334 340.709 307.334C324.356 307.334 307.2 301.168 296.399 290.303C296.269 291.281 296.139 292.259 295.965 293.301C294.924 299.701 300.173 324.642 312.015 350.158C312.947 346.905 314.184 345.14 314.184 345.14C314.444 358.216 325.071 374.185 335.721 386.964C334.354 380.457 334.81 375.418 334.81 375.418C338.063 386.454 343.117 394.363 348.712 399.998C351.337 402.018 354.048 403.868 356.867 405.484C356.152 401.805 356.043 399.275 356.043 399.275C359.275 405.059 381.029 413.372 385.497 413.372C389.964 413.372 411.74 405.059 414.95 399.275C414.95 399.275 414.863 401.805 414.148 405.484C416.967 403.868 419.678 402.018 422.302 399.998C427.877 394.342 432.952 386.454 436.205 375.418C436.205 375.418 436.661 380.457 435.294 386.964C445.943 374.185 456.593 358.216 456.853 345.14C456.853 345.14 458.089 346.926 459.022 350.158C470.864 324.642 476.113 299.701 475.071 293.301Z" fill="white"/>
<path id="hat" d="M385.544 0C385.544 0 309.742 1.08441 297.119 12.8003C289.289 20.0722 305.534 23.8995 306.38 155.368C306.38 176.971 464.709 176.95 464.709 155.368C465.555 23.8995 481.8 20.0722 473.97 12.8003C461.347 1.08441 385.544 0 385.544 0ZM385.544 27.1952C347.567 27.1952 316.769 21.8795 316.769 15.3093C316.769 8.73905 347.567 3.42333 385.544 3.42333C423.522 3.42333 454.32 8.73905 454.32 15.3093C454.32 21.8795 423.522 27.1952 385.544 27.1952Z" fill="white"/>
</g>
<g id="shadow_2">
<path id="mustache_2" d="M475.192 264.511C475.192 250.243 460.639 249.138 460.639 249.138C466.516 254.9 465.128 264.511 453.915 264.511C447.3 264.511 438.364 257.069 428.669 250.966C425.438 257.919 420.623 270.167 426.24 271.209C434.091 272.676 456.648 272.761 442.94 280.734C430.296 288.091 413.14 282.712 411.969 293.811C417.781 295.618 424.071 296.915 430.383 296.915C451.659 296.915 475.192 284.285 475.192 264.532V264.511Z" fill="#CCCCCC"/>
<path id="beard_2" d="M454.175 329.044C454.175 329.044 453.069 323.111 445.999 320.666C438.928 318.2 442.897 344.225 440.251 354.623C437.605 365.021 428.301 368.508 410.386 382.371C399.216 391.025 390.41 401.89 386.68 413.245C392.883 412.245 411.991 404.655 414.984 399.275C414.984 399.275 414.897 401.805 414.181 405.484C417.001 403.868 419.712 402.018 422.336 399.998C427.91 394.342 432.985 386.454 436.239 375.418C436.239 375.418 436.694 380.457 435.328 386.964C445.977 374.185 456.626 358.216 456.886 345.14C456.886 345.14 458.123 346.926 459.055 350.158C470.897 324.642 476.146 299.701 475.105 293.301C474.932 292.259 474.801 291.26 474.671 290.303C463.849 301.168 446.714 307.334 430.361 307.334C428.864 307.334 427.39 307.249 425.915 307.143C440.75 311.863 461.159 314.542 454.197 329.044H454.175Z" fill="#CCCCCC"/>
<path id="lower-hat_2" d="M500.787 121.325C497.014 121.325 493.326 122.495 490.117 124.685C482.612 129.809 476.409 132.616 471.724 134.147C471.508 143.906 471.399 154.495 471.399 166.02V166.785L471.204 167.529C470.835 168.912 468.363 176.098 455.848 182.732C452.074 184.731 447.758 186.496 442.922 188.006C440.08 199.785 438.02 208.694 436.523 215.456C461.335 210.948 481.137 202.762 495.669 190.961C518.269 172.611 520.025 151.88 520.025 145.969C520.025 128.959 510.374 121.325 500.831 121.325H500.787ZM504.67 156.239C495.994 181.627 476.756 191.833 476.756 191.833C476.756 191.833 504.865 170.506 499.92 146.096C499.92 134.997 475.693 140.462 475.693 140.462C479.749 137.357 491.027 134.125 495.322 130.83C501.763 125.875 513.345 130.83 504.67 156.218V156.239Z" fill="#CCCCCC"/>
</g>
</g>
</g>
</g>
<defs>
<clipPath id="clip0_2011_467">
<rect width="778" height="593.171" fill="white"/>
</clipPath>
</defs>
</svg>
