<svg width="512" height="512" viewBox="0 0 512 512" fill="none" xmlns="http://www.w3.org/2000/svg">
<g clip-path="url(#clip0_1889_2744)">
<path d="M322.675 149.429C320.424 149.429 318.225 150.137 316.311 151.462C311.835 154.564 308.136 156.263 305.342 157.189C305.213 163.096 305.148 169.504 305.148 176.479V176.943L305.031 177.393C304.812 178.229 303.337 182.579 295.873 186.594C286.832 191.459 272.719 193.917 253.95 193.917C235.181 193.917 221.069 191.446 212.027 186.594C204.563 182.579 203.089 178.229 202.869 177.393L202.753 176.943V176.479C202.753 169.504 202.688 163.096 202.558 157.189C199.764 156.263 196.052 154.564 191.589 151.462C189.675 150.137 187.476 149.429 185.225 149.429C179.521 149.429 173.765 154.036 173.765 164.344C173.765 167.922 174.812 180.469 188.291 191.574C202.248 203.079 224.341 208.909 253.95 208.909C283.559 208.909 305.652 203.079 319.609 191.574C333.088 180.469 334.136 167.922 334.136 164.344C334.136 154.049 328.38 149.429 322.688 149.429H322.675ZM199.312 192.102C199.312 192.102 187.851 185.925 182.677 170.56C177.503 155.194 184.41 152.196 188.252 155.194C190.8 157.189 197.54 159.145 199.959 161.024C199.959 161.024 185.51 157.717 185.51 164.434C182.561 179.208 199.325 192.115 199.325 192.115L199.312 192.102ZM324.991 170.56C319.816 185.925 308.343 192.102 308.343 192.102C308.343 192.102 325.107 179.195 322.158 164.421C322.158 157.704 307.709 161.011 307.709 161.011C310.128 159.132 316.854 157.176 319.415 155.182C323.257 152.183 330.165 155.182 324.991 170.547V170.56Z" fill="#597A59"/>
<path d="M46.1842 404.617C42.0449 405.093 38.436 404.707 35.3703 403.459C32.3047 402.21 29.8341 400.254 27.9714 397.603C26.1087 394.952 24.9316 391.761 24.453 388.016C24.3625 387.295 24.3107 386.935 24.2202 386.214C23.7157 382.277 24.0261 378.712 25.1644 375.508C26.2898 372.303 28.1913 369.678 30.8689 367.619C33.5465 365.56 36.9226 364.299 41.0101 363.823C43.8041 363.501 46.6499 363.604 49.5603 364.119C52.4578 364.634 55.0836 365.676 57.3991 367.233C57.8001 370.952 57.9941 372.818 58.3951 376.537C55.6011 376.833 54.2041 376.988 51.41 377.296C50.5951 375.34 50.1812 374.362 49.3663 372.419C48.6548 371.853 47.6976 371.428 46.4817 371.145C45.2658 370.862 43.9335 370.798 42.4718 370.965C40.234 371.222 38.4101 371.982 37.039 373.243C35.6549 374.504 34.7106 376.138 34.1803 378.159C33.6629 380.179 33.5594 382.457 33.8699 384.992C33.9604 385.738 33.9992 386.099 34.0898 386.845C34.3873 389.239 35.034 391.272 36.03 392.945C37.0261 394.618 38.3454 395.84 39.9624 396.625C41.5793 397.41 43.4937 397.681 45.7056 397.423C46.8698 397.295 47.9951 397.037 49.1205 396.677C50.2329 396.316 51.0996 395.943 51.7076 395.583C51.4747 393.537 51.3583 392.507 51.1255 390.461C49.2887 390.448 48.3573 390.435 46.5205 390.423C46.223 387.784 46.0678 386.459 45.7573 383.821C51.5006 383.165 54.3722 382.856 60.1155 382.238C60.8269 388.827 61.1761 392.121 61.8747 398.723C59.8568 400.332 57.5155 401.631 54.8638 402.609C52.212 403.587 49.3016 404.257 46.1325 404.63L46.1842 404.617Z" fill="#597A59"/>
<path d="M69.8949 401.464C69.6621 399.225 69.5457 398.105 69.3258 395.866C70.9556 395.351 71.7705 395.094 73.4133 394.566C72.3397 383.847 71.7964 378.493 70.7228 367.774C68.9894 367.593 68.1228 367.503 66.4024 367.323C66.1696 365.071 66.0531 363.952 65.8203 361.7C78.9108 360.374 85.4689 359.756 98.5723 358.662C98.9604 363.257 99.1544 365.547 99.5425 370.141C96.5803 370.386 95.0928 370.515 92.1177 370.785C91.8848 369.151 91.7684 368.34 91.5226 366.705C87.1635 367.092 84.9903 367.285 80.6441 367.696C80.9545 370.965 81.1098 372.599 81.4202 375.868C86.6072 375.379 89.2072 375.147 94.4072 374.697C94.6659 377.644 94.7952 379.111 95.054 382.045C89.8799 382.495 87.2928 382.727 82.1187 383.216C82.4809 387.012 82.662 388.904 83.0242 392.7C87.5256 392.276 89.7764 392.07 94.2908 391.671C94.2261 389.946 94.1873 389.084 94.1226 387.36C97.033 387.102 98.4818 386.974 101.392 386.742C101.793 391.426 101.987 393.768 102.388 398.44C89.3883 399.534 82.8819 400.126 69.8949 401.451V401.464Z" fill="#597A59"/>
<path d="M110.46 397.796C110.279 395.557 110.188 394.438 110.007 392.186C111.637 391.709 112.452 391.465 114.094 390.989C113.254 380.256 112.84 374.89 111.999 364.145C110.291 363.926 109.425 363.81 107.717 363.604C107.536 361.352 107.446 360.22 107.265 357.968C108.959 357.839 109.8 357.762 111.494 357.633C115.517 357.324 117.535 357.17 121.558 356.887C128.879 366.615 132.501 371.506 139.654 381.299H139.823C139.344 373.68 139.098 369.884 138.62 362.279C136.447 362.06 135.36 361.957 133.187 361.751C133.032 359.499 132.967 358.366 132.812 356.114C138.477 355.741 141.31 355.574 146.976 355.239C148.683 355.136 149.537 355.098 151.244 354.995C151.374 357.247 151.438 358.379 151.555 360.644C149.873 361.095 149.033 361.313 147.364 361.764C148.14 375.109 148.541 381.788 149.317 395.133C145.488 395.351 143.587 395.467 139.771 395.712C132.566 386.137 128.918 381.363 121.519 371.866C121.455 371.866 121.416 371.866 121.351 371.866C121.894 379.253 122.166 382.946 122.696 390.345C124.844 390.538 125.93 390.641 128.077 390.847C128.233 393.086 128.31 394.219 128.466 396.458C121.261 396.96 117.652 397.23 110.447 397.796H110.46Z" fill="#597A59"/>
<path d="M168.344 394.116C168.241 391.864 168.176 390.744 168.072 388.492C169.741 388.055 170.569 387.849 172.251 387.424C171.772 377.039 171.539 371.853 171.06 361.468C168.525 361.584 167.27 361.648 164.735 361.764C164.722 363.488 164.709 364.35 164.696 366.075C161.721 366.216 160.234 366.294 157.259 366.448C157.013 361.751 156.883 359.396 156.638 354.686C171.914 353.875 179.559 353.554 194.848 353.065C195.004 357.775 195.081 360.13 195.236 364.827C192.223 364.93 190.722 364.981 187.708 365.084C187.553 363.36 187.475 362.51 187.32 360.786C184.772 360.876 183.491 360.927 180.93 361.03C181.344 371.415 181.564 376.614 181.978 387C183.672 387.283 184.526 387.424 186.221 387.707C186.311 389.959 186.35 391.079 186.44 393.331C179.197 393.601 175.588 393.756 168.344 394.103V394.116Z" fill="#597A59"/>
<path d="M202.106 392.829C202.041 390.577 202.002 389.457 201.938 387.205C203.606 386.806 204.434 386.601 206.103 386.215C205.805 375.456 205.663 370.064 205.378 359.306C203.671 358.997 202.817 358.843 201.097 358.547C201.032 356.282 200.993 355.162 200.929 352.897C202.636 352.846 203.49 352.82 205.197 352.781C209.168 352.679 211.148 352.627 215.119 352.537C217.201 352.498 218.236 352.473 220.319 352.434C220.357 354.699 220.383 355.831 220.422 358.083C218.352 358.469 217.318 358.675 215.261 359.061C215.481 369.472 215.597 374.684 215.83 385.095C219.672 385.018 221.586 384.979 225.428 384.915C225.48 382.688 225.506 381.569 225.557 379.343C228.545 379.291 230.033 379.278 233.021 379.24C233.086 384.426 233.112 387.012 233.176 392.186C220.746 392.34 214.537 392.469 202.106 392.829Z" fill="#597A59"/>
<path d="M239.643 392.121C239.63 389.869 239.617 388.75 239.591 386.498C241.26 386.137 242.101 385.944 243.77 385.584C243.705 374.813 243.666 369.434 243.601 358.662C241.894 358.328 241.04 358.148 239.346 357.813C239.32 355.548 239.32 354.416 239.294 352.164C252.436 352.048 259.007 352.048 272.149 352.164C272.111 356.771 272.085 359.074 272.046 363.694C269.071 363.668 267.583 363.656 264.608 363.643C264.531 361.995 264.492 361.172 264.401 359.525C260.029 359.499 257.856 359.499 253.484 359.499C253.484 362.78 253.484 364.428 253.484 367.709C258.697 367.709 261.297 367.709 266.51 367.735C266.497 370.682 266.484 372.162 266.471 375.122C261.284 375.096 258.684 375.083 253.497 375.096C253.497 378.905 253.497 380.81 253.497 384.619C258.011 384.619 260.275 384.619 264.802 384.644C264.893 382.92 264.945 382.058 265.048 380.333C267.958 380.346 269.42 380.359 272.343 380.385C272.305 385.082 272.279 387.437 272.24 392.134C259.201 392.018 252.682 392.018 239.643 392.134V392.121Z" fill="#597A59"/>
<path d="M280.131 392.211C280.157 389.959 280.183 388.84 280.209 386.588C281.877 386.253 282.718 386.099 284.387 385.764C284.555 374.993 284.646 369.614 284.814 358.843C283.132 358.469 282.291 358.276 280.597 357.903C280.623 355.638 280.648 354.506 280.674 352.254C282.369 352.28 283.223 352.292 284.917 352.318C290.984 352.408 294.024 352.473 300.09 352.614C303.816 363.231 305.652 368.546 309.261 379.188C309.326 379.188 309.365 379.188 309.429 379.188C313.556 368.777 315.638 363.578 319.868 353.193C327.539 353.451 331.381 353.605 339.038 353.953C338.935 356.217 338.883 357.337 338.779 359.602C337.059 359.872 336.205 360.014 334.498 360.297C334.032 371.055 333.812 376.434 333.347 387.193C335.002 387.617 335.83 387.823 337.486 388.248C337.382 390.5 337.331 391.619 337.227 393.871C330.022 393.55 326.413 393.408 319.208 393.151C319.286 390.899 319.325 389.779 319.402 387.527C321.149 387.231 322.028 387.09 323.788 386.806C323.865 384.722 323.904 383.679 323.982 381.595C324.357 374.079 324.538 370.334 324.913 362.819C324.848 362.806 324.809 362.793 324.745 362.78C319.661 374.813 317.152 380.848 312.21 392.919C309.158 392.829 307.631 392.778 304.579 392.7C300.284 380.501 298.098 374.414 293.648 362.253C293.571 362.253 293.532 362.266 293.454 362.279C293.584 369.138 293.648 372.561 293.765 379.407C293.713 382.019 293.687 383.319 293.635 385.931C295.511 386.317 296.442 386.523 298.305 386.909C298.253 389.161 298.228 390.281 298.176 392.533C290.958 392.366 287.349 392.301 280.118 392.198L280.131 392.211Z" fill="#597A59"/>
<path d="M343.41 394.155C343.514 391.902 343.578 390.783 343.682 388.531C345.376 388.261 346.217 388.132 347.912 387.862C348.455 377.103 348.727 371.724 349.27 360.979C347.588 360.541 346.747 360.323 345.066 359.898C345.169 357.646 345.234 356.513 345.338 354.248C358.467 354.879 365.038 355.252 378.154 356.114C377.857 360.709 377.702 363.012 377.391 367.619C374.416 367.426 372.928 367.336 369.966 367.143C369.966 365.496 369.979 364.672 369.992 363.025C365.633 362.755 363.447 362.626 359.088 362.382C358.907 365.663 358.816 367.297 358.635 370.579C363.835 370.862 366.448 371.016 371.648 371.351C371.467 374.298 371.363 375.765 371.182 378.712C365.995 378.39 363.408 378.236 358.221 377.953C358.014 381.762 357.898 383.654 357.691 387.463C362.205 387.707 364.456 387.849 368.97 388.119C369.164 386.408 369.268 385.545 369.462 383.834C372.372 384.014 373.834 384.104 376.744 384.297C376.434 388.981 376.279 391.323 375.968 396.02C362.955 395.158 356.436 394.798 343.41 394.167V394.155Z" fill="#597A59"/>
<path d="M384.053 396.561C384.208 394.322 384.286 393.189 384.454 390.95C386.135 390.719 386.976 390.603 388.671 390.371C389.46 379.626 389.848 374.259 390.637 363.527C388.981 363.051 388.14 362.819 386.485 362.356C386.64 360.104 386.73 358.971 386.886 356.719C388.58 356.835 389.421 356.899 391.115 357.015C395.138 357.311 397.156 357.453 401.179 357.775C406.961 368.481 409.807 373.86 415.408 384.606C415.472 384.606 415.511 384.606 415.576 384.619C416.236 377.026 416.572 373.23 417.245 365.65C415.136 365.11 414.075 364.852 411.954 364.312C412.148 362.06 412.239 360.927 412.433 358.675C418.085 359.152 420.918 359.396 426.571 359.924C428.278 360.078 429.119 360.155 430.827 360.323C430.62 362.575 430.503 363.694 430.296 365.946C428.563 366.139 427.709 366.229 425.976 366.422C424.747 379.742 424.126 386.395 422.897 399.701C419.081 399.354 417.18 399.186 413.364 398.852C407.672 388.312 404.775 383.049 398.902 372.561C398.838 372.561 398.799 372.561 398.734 372.561C398.165 379.947 397.868 383.641 397.298 391.027C399.394 391.542 400.442 391.8 402.537 392.327C402.356 394.566 402.266 395.686 402.084 397.938C394.88 397.359 391.284 397.089 384.066 396.587L384.053 396.561Z" fill="#597A59"/>
<path d="M440.98 374.723C439.234 373.642 438.367 373.101 436.621 372.033C437.384 370.862 438.005 369.614 438.497 368.288C438.988 366.963 439.325 365.406 439.506 363.604C439.713 361.494 439.816 360.438 440.036 358.328C443.14 358.637 444.693 358.791 447.784 359.113C447.564 361.236 447.448 362.304 447.228 364.441C447.099 365.663 446.724 366.911 446.103 368.211C445.482 369.511 444.719 370.733 443.813 371.866C442.908 373.011 441.976 373.963 440.993 374.723H440.98Z" fill="#597A59"/>
<path d="M468.869 405.08C465.609 404.694 462.751 404.063 460.28 403.15C457.822 402.249 455.429 400.808 453.088 398.826C453.541 394.695 453.761 392.636 454.213 388.518C457.227 388.84 458.728 389.007 461.729 389.342C461.819 391.491 461.871 392.572 461.961 394.721C462.479 395.441 463.462 396.111 464.898 396.728C466.334 397.346 467.938 397.758 469.71 397.964C470.939 398.105 471.986 398.079 472.853 397.874C473.72 397.668 474.392 397.307 474.884 396.78C475.375 396.252 475.673 395.57 475.776 394.759C475.867 393.974 475.763 393.254 475.44 392.585C475.117 391.915 474.535 391.259 473.694 390.59C472.853 389.934 471.702 389.213 470.24 388.454C466.903 386.961 464.186 385.532 462.091 384.155C459.995 382.779 458.482 381.26 457.576 379.6C456.658 377.94 456.322 375.958 456.58 373.667C456.826 371.467 457.68 369.614 459.155 368.108C460.629 366.602 462.556 365.509 464.924 364.814C467.304 364.119 469.955 363.926 472.892 364.209C476.229 364.531 479.152 365.2 481.623 366.229C484.107 367.259 486.228 368.623 488.013 370.322C487.534 374.144 487.289 376.061 486.797 379.883C483.9 379.523 482.451 379.343 479.54 378.995C479.346 376.82 479.243 375.726 479.049 373.539C478.454 373.153 477.587 372.767 476.436 372.368C475.285 371.969 474.056 371.699 472.737 371.544C471.598 371.415 470.563 371.441 469.645 371.621C468.727 371.814 467.976 372.162 467.394 372.689C466.812 373.217 466.476 373.912 466.372 374.787C466.295 375.495 466.437 376.151 466.799 376.756C467.161 377.361 467.847 378.004 468.869 378.673C469.878 379.355 471.314 380.166 473.163 381.118C477.613 382.984 480.899 385.069 483.033 387.36C485.167 389.638 486.008 392.494 485.568 395.905C485.271 398.247 484.378 400.151 482.878 401.644C481.39 403.124 479.437 404.154 477.044 404.746C474.651 405.325 471.922 405.44 468.882 405.08H468.869Z" fill="#597A59"/>
<path d="M468.869 405.08C471.908 405.44 474.625 405.325 477.031 404.746C479.424 404.166 481.377 403.124 482.865 401.644C484.352 400.164 485.258 398.247 485.555 395.905C485.749 394.36 485.646 392.945 485.322 391.632C481.144 390.989 476.863 390.358 472.478 389.753C472.93 390.037 473.357 390.333 473.706 390.603C474.547 391.259 475.129 391.928 475.453 392.597C475.776 393.267 475.88 393.987 475.789 394.772C475.685 395.596 475.388 396.265 474.896 396.793C474.405 397.32 473.719 397.693 472.866 397.886C471.999 398.092 470.951 398.118 469.722 397.977C467.95 397.771 466.359 397.359 464.91 396.741C463.475 396.123 462.492 395.454 461.974 394.734C461.884 392.585 461.832 391.504 461.741 389.354C458.74 389.02 457.227 388.853 454.226 388.531C453.773 392.662 453.553 394.721 453.101 398.839C455.429 400.821 457.822 402.262 460.293 403.163C462.75 404.063 465.609 404.707 468.882 405.093L468.869 405.08Z" fill="#204023"/>
<path d="M402.524 392.301C400.429 391.787 399.381 391.516 397.285 391.002C397.557 387.476 397.764 384.799 397.971 382.148C395.099 381.942 392.215 381.736 389.317 381.543C389.123 384.181 388.916 387 388.671 390.358C386.989 390.59 386.135 390.706 384.454 390.937C384.299 393.177 384.221 394.309 384.053 396.548C391.258 397.05 394.867 397.32 402.072 397.899C402.253 395.66 402.343 394.541 402.524 392.289V392.301Z" fill="#204023"/>
<path d="M413.351 398.852C417.167 399.186 419.069 399.354 422.885 399.701C423.454 393.601 423.881 388.904 424.308 384.323C421.449 384.065 418.564 383.808 415.667 383.564C415.641 383.924 415.602 384.246 415.576 384.619C415.512 384.619 415.473 384.619 415.408 384.606C415.201 384.207 415.02 383.872 414.826 383.486C411.424 383.203 407.983 382.92 404.517 382.65C407.311 387.707 409.781 392.237 413.351 398.852Z" fill="#204023"/>
<path d="M376.745 384.284C373.834 384.091 372.372 384.001 369.462 383.821C369.268 385.532 369.164 386.395 368.97 388.106C364.456 387.823 362.205 387.694 357.691 387.45C357.872 384.297 357.975 382.444 358.118 379.742C354.871 379.587 351.611 379.433 348.339 379.278C348.209 381.852 348.067 384.606 347.899 387.862C346.204 388.132 345.364 388.261 343.669 388.531C343.566 390.783 343.501 391.902 343.397 394.155C356.423 394.785 362.93 395.145 375.955 396.008C376.266 391.323 376.421 388.981 376.732 384.284H376.745Z" fill="#204023"/>
<path d="M298.318 386.922C296.455 386.523 295.524 386.33 293.648 385.944C293.7 383.332 293.726 382.032 293.778 379.42C293.778 378.776 293.752 378.184 293.739 377.592C290.66 377.541 287.582 377.489 284.503 377.438C284.464 379.947 284.426 382.624 284.374 385.777C282.705 386.099 281.864 386.266 280.196 386.601C280.17 388.853 280.144 389.972 280.118 392.224C287.336 392.327 290.945 392.392 298.176 392.559C298.228 390.307 298.253 389.187 298.305 386.935L298.318 386.922Z" fill="#204023"/>
<path d="M324.163 378.352C324.111 379.368 324.059 380.436 324.007 381.607C323.93 383.692 323.891 384.735 323.813 386.819C322.054 387.102 321.188 387.244 319.428 387.54C319.351 389.792 319.312 390.912 319.234 393.164C326.439 393.408 330.048 393.563 337.253 393.884C337.357 391.632 337.408 390.513 337.512 388.261C335.856 387.836 335.028 387.617 333.373 387.205C333.515 383.975 333.631 381.247 333.735 378.699C330.566 378.583 327.384 378.468 324.189 378.365L324.163 378.352Z" fill="#204023"/>
<path d="M304.605 392.713C307.657 392.79 309.184 392.842 312.237 392.932C314.642 387.038 316.479 382.586 318.316 378.172C315.535 378.094 312.741 378.017 309.934 377.94C309.766 378.365 309.611 378.751 309.43 379.201C309.365 379.201 309.326 379.201 309.261 379.201C309.106 378.751 308.977 378.352 308.822 377.914C305.64 377.837 302.457 377.76 299.275 377.695C300.892 382.187 302.496 386.716 304.605 392.713Z" fill="#204023"/>
<path d="M239.644 392.121C252.682 392.005 259.202 392.005 272.24 392.121C272.279 387.424 272.305 385.069 272.344 380.372C269.433 380.346 267.972 380.333 265.048 380.321C264.945 382.045 264.906 382.907 264.803 384.632C260.288 384.606 258.025 384.606 253.497 384.606C253.497 381.569 253.497 379.729 253.497 377.194C250.237 377.194 246.978 377.194 243.718 377.206C243.731 379.716 243.757 382.405 243.77 385.571C242.101 385.931 241.26 386.112 239.592 386.485C239.618 388.737 239.618 389.856 239.644 392.108V392.121Z" fill="#204023"/>
<path d="M202.105 392.829C214.536 392.469 220.745 392.34 233.176 392.186C233.111 387 233.085 384.413 233.021 379.24C230.033 379.278 228.545 379.291 225.557 379.343C225.505 381.569 225.479 382.688 225.428 384.915C221.586 384.979 219.671 385.018 215.83 385.095C215.765 382.238 215.713 379.793 215.662 377.502C212.389 377.554 209.129 377.618 205.882 377.683C205.947 380.243 206.025 382.972 206.115 386.215C204.447 386.613 203.619 386.806 201.95 387.205C202.015 389.457 202.054 390.577 202.118 392.829H202.105Z" fill="#204023"/>
<path d="M69.8943 401.464C82.8813 400.139 89.3748 399.547 102.388 398.453C101.987 393.768 101.793 391.426 101.392 386.755C98.4812 386.999 97.0325 387.128 94.1221 387.373C94.1867 389.097 94.2255 389.959 94.2902 391.684C89.7887 392.083 87.5251 392.289 83.0236 392.713C82.7002 389.252 82.5191 387.36 82.2087 384.168C78.9231 384.464 75.6635 384.773 72.4555 385.082C72.7401 387.913 73.0376 390.924 73.4127 394.579C71.7829 395.094 70.955 395.351 69.3252 395.879C69.558 398.118 69.6744 399.238 69.8943 401.477V401.464Z" fill="#204023"/>
<path d="M168.345 394.116C175.589 393.768 179.198 393.614 186.441 393.344C186.351 391.092 186.312 389.972 186.221 387.72C184.527 387.437 183.673 387.295 181.979 387.012C181.849 383.692 181.733 380.913 181.629 378.313C178.357 378.416 175.097 378.532 171.85 378.648C171.967 381.273 172.096 384.065 172.251 387.424C170.583 387.849 169.742 388.068 168.073 388.492C168.177 390.744 168.241 391.864 168.345 394.116Z" fill="#204023"/>
<path d="M139.77 395.699C143.586 395.454 145.501 395.338 149.317 395.12C148.954 388.981 148.683 384.258 148.411 379.651C145.514 379.793 142.616 379.935 139.745 380.089C139.77 380.488 139.796 380.861 139.822 381.286H139.654C139.357 380.887 139.098 380.527 138.813 380.14C135.321 380.333 131.854 380.527 128.4 380.732C132.009 385.417 135.166 389.586 139.77 395.699Z" fill="#204023"/>
<path d="M110.46 397.796C117.664 397.23 121.26 396.96 128.478 396.458C128.323 394.219 128.246 393.086 128.09 390.847C125.943 390.641 124.869 390.538 122.709 390.345C122.438 386.665 122.244 383.898 122.037 381.131C119.139 381.312 116.242 381.505 113.37 381.698C113.59 384.464 113.81 387.424 114.094 390.976C112.465 391.452 111.65 391.697 110.007 392.173C110.188 394.412 110.278 395.532 110.46 397.784V397.796Z" fill="#204023"/>
<path d="M27.9714 397.603C29.8341 400.254 32.3047 402.21 35.3704 403.459C38.436 404.707 42.032 405.093 46.1843 404.617C49.3534 404.257 52.2638 403.587 54.9155 402.596C57.5673 401.618 59.8956 400.319 61.9264 398.71C61.3832 393.627 61.0468 390.487 60.5941 386.305C55.7305 386.832 50.9574 387.373 46.2748 387.952C46.3653 388.685 46.443 389.445 46.5594 390.41C48.4091 390.41 49.3275 390.423 51.1643 390.448C51.3972 392.494 51.5136 393.524 51.7464 395.57C51.1385 395.93 50.2718 396.291 49.1594 396.664C48.0469 397.024 46.9086 397.282 45.7445 397.41C43.5325 397.668 41.6181 397.41 40.0012 396.612C38.3714 395.827 37.0649 394.605 36.0689 392.932C35.4609 391.915 35.0341 390.731 34.6848 389.445C31.3993 389.895 28.1655 390.345 24.9834 390.822C25.6043 393.382 26.6003 395.647 27.9844 397.603H27.9714Z" fill="#204023"/>
<path d="M200.502 236.087C200.502 248.055 214.524 255.687 227.226 255.687C240.588 255.687 253.95 246.048 253.95 246.048C253.95 246.048 267.312 255.687 280.675 255.687C294.037 255.687 307.399 248.043 307.399 236.087C307.399 227.453 298.719 226.783 298.719 226.783C302.225 230.271 301.397 236.087 294.709 236.087C288.022 236.087 277.337 223.129 267.325 223.129C257.314 223.129 253.963 229.769 253.963 229.769C253.963 229.769 250.626 223.129 240.601 223.129C230.576 223.129 219.892 236.087 213.217 236.087C206.543 236.087 205.702 230.271 209.207 226.783C209.207 226.783 200.528 227.453 200.528 236.087H200.502Z" fill="#597A59"/>
<path d="M217.718 270.074V269.379C217.718 269.379 217.693 269.623 217.718 270.074Z" fill="#597A59"/>
<path d="M307.386 236.087C307.386 227.453 298.706 226.783 298.706 226.783C302.212 230.271 301.384 236.087 294.696 236.087C290.751 236.087 285.422 231.583 279.64 227.89C277.712 232.098 274.841 239.511 278.191 240.141C282.874 241.029 296.326 241.081 288.151 245.906C280.61 250.359 270.378 247.103 269.68 253.821C273.146 254.914 276.898 255.699 280.662 255.699C293.351 255.699 307.386 248.055 307.386 236.1V236.087Z" fill="#204023"/>
<path d="M307.346 253.512C307.243 252.881 307.165 252.276 307.088 251.697C300.633 258.273 290.414 262.005 280.661 262.005C269.834 262.005 259.331 256.755 253.937 253.563C248.543 256.755 238.052 262.005 227.213 262.005C217.459 262.005 207.228 258.273 200.786 251.697C200.708 252.289 200.631 252.881 200.527 253.512C199.906 257.385 203.037 272.48 210.099 287.923C210.655 285.954 211.393 284.886 211.393 284.886C211.548 292.8 217.886 302.465 224.237 310.199C223.423 306.261 223.694 303.211 223.694 303.211C225.634 309.89 228.648 314.677 231.986 318.087C233.551 319.31 235.168 320.429 236.849 321.407C236.422 319.181 236.358 317.65 236.358 317.65C238.285 321.15 251.259 326.182 253.924 326.182C256.588 326.182 269.575 321.15 271.49 317.65C271.49 317.65 271.438 319.181 271.011 321.407C272.693 320.429 274.31 319.31 275.875 318.087C279.199 314.664 282.226 309.89 284.166 303.211C284.166 303.211 284.438 306.261 283.623 310.199C289.974 302.465 296.326 292.8 296.481 284.886C296.481 284.886 297.218 285.967 297.774 287.923C304.837 272.48 307.967 257.385 307.346 253.512Z" fill="#597A59"/>
<path d="M253.937 76C253.937 76 208.728 76.6563 201.2 83.747C196.531 88.1481 206.219 90.4645 206.723 170.032C206.723 183.107 301.151 183.094 301.151 170.032C301.655 90.4645 311.344 88.1481 306.674 83.747C299.146 76.6563 253.937 76 253.937 76ZM253.937 92.4592C231.287 92.4592 212.919 89.242 212.919 85.2655C212.919 81.2891 231.287 78.0719 253.937 78.0719C276.587 78.0719 294.955 81.2891 294.955 85.2655C294.955 89.242 276.587 92.4592 253.937 92.4592Z" fill="#597A59"/>
<path d="M185.743 426.738C185.303 426.378 184.746 426.133 184.061 425.979C184.863 425.644 185.458 425.168 185.846 424.525C186.234 423.881 186.428 423.161 186.428 422.35C186.428 420.78 185.82 419.596 184.604 418.811C183.388 418.013 181.694 417.627 179.521 417.627H171.721V420.047L173.506 420.42V431.976L171.721 432.349V434.768H180.4C182.548 434.768 184.177 434.344 185.316 433.481C186.454 432.619 187.01 431.358 187.01 429.672C187.01 429.08 186.907 428.54 186.7 428.025C186.493 427.51 186.169 427.086 185.743 426.725V426.738ZM177.671 420.78H179.534C180.452 420.78 181.15 420.947 181.603 421.269C182.056 421.591 182.289 422.118 182.289 422.826C182.289 423.482 182.043 423.959 181.564 424.267C181.086 424.576 180.349 424.731 179.365 424.731H177.684V420.78H177.671ZM182.263 431.139C181.849 431.461 181.228 431.628 180.413 431.628H177.684V427.472H180.62C181.15 427.472 181.59 427.549 181.927 427.716C182.263 427.884 182.509 428.115 182.664 428.45C182.819 428.784 182.897 429.183 182.897 429.685C182.897 430.342 182.69 430.831 182.276 431.152L182.263 431.139Z" fill="#597A59"/>
<path d="M198.445 417.614H193.944L188.808 432.169L187.605 432.349V434.768H194.06V432.349L192.935 432.143L193.426 430.277H198.963L199.48 432.143L198.355 432.349V434.768H204.796V432.349L203.593 432.169L198.445 417.614ZM194.306 427.382L195.936 422.247L196.143 421.591H196.207L196.401 422.196L198.083 427.395H194.306V427.382Z" fill="#597A59"/>
<path d="M218.029 427.523C218.779 427.034 219.426 426.455 219.892 425.722C220.435 424.859 220.719 423.92 220.719 422.916C220.719 421.822 220.448 420.883 219.905 420.085C219.361 419.287 218.585 418.67 217.589 418.245C216.593 417.807 215.403 417.601 214.045 417.601H205.572V420.034L207.357 420.407V431.963L205.572 432.336V434.755H213.295V432.336L211.51 431.963V428.54L214.342 428.578L216.49 434.755H221.508V432.349L219.879 431.937L218.068 427.51L218.029 427.523ZM211.484 425.374V420.767H214.019C214.834 420.767 215.468 420.986 215.908 421.436C216.347 421.887 216.567 422.466 216.567 423.199C216.567 423.933 216.347 424.448 215.92 424.821C215.494 425.194 214.873 425.374 214.058 425.374H211.484Z" fill="#597A59"/>
<path d="M236.384 426.738C235.944 426.378 235.388 426.133 234.703 425.979C235.505 425.644 236.1 425.168 236.488 424.525C236.876 423.881 237.07 423.161 237.07 422.35C237.07 420.78 236.462 419.596 235.246 418.811C234.03 418.013 232.335 417.627 230.162 417.627H222.362V420.047L224.147 420.42V431.976L222.362 432.349V434.768H231.042C233.189 434.768 234.819 434.344 235.957 433.481C237.083 432.632 237.652 431.358 237.652 429.672C237.652 429.08 237.548 428.54 237.341 428.025C237.134 427.51 236.811 427.086 236.384 426.725V426.738ZM228.313 420.78H230.175C231.094 420.78 231.792 420.947 232.245 421.269C232.698 421.591 232.93 422.118 232.93 422.826C232.93 423.482 232.685 423.959 232.206 424.267C231.727 424.576 230.99 424.731 230.007 424.731H228.325V420.78H228.313ZM232.905 431.139C232.491 431.461 231.87 431.628 231.055 431.628H228.325V427.472H231.262C231.792 427.472 232.232 427.549 232.568 427.716C232.905 427.884 233.15 428.115 233.306 428.45C233.461 428.784 233.538 429.183 233.538 429.685C233.538 430.342 233.331 430.831 232.917 431.152L232.905 431.139Z" fill="#597A59"/>
<path d="M249.202 431.564H244.39V427.485H249.888V424.319H244.39V420.793H248.982L249.073 422.556H252.216V417.614H238.453V420.047L240.238 420.42V431.963L238.453 432.349V434.755H252.397V429.724H249.306L249.202 431.564Z" fill="#597A59"/>
<path d="M266.42 427.523C267.17 427.034 267.817 426.455 268.282 425.722C268.825 424.859 269.11 423.92 269.11 422.916C269.11 421.822 268.838 420.883 268.295 420.085C267.752 419.287 266.976 418.67 265.98 418.245C264.984 417.82 263.794 417.601 262.435 417.601H253.963V420.034L255.748 420.407V431.963L253.963 432.336V434.755H261.685V432.336L259.9 431.963V428.54L262.733 428.578L264.88 434.755H269.899V432.349L268.269 431.937L266.458 427.51L266.42 427.523ZM259.874 425.374V420.767H262.41C263.225 420.767 263.858 420.986 264.298 421.436C264.738 421.887 264.958 422.466 264.958 423.199C264.958 423.933 264.738 424.448 264.311 424.821C263.884 425.194 263.263 425.374 262.448 425.374H259.874Z" fill="#597A59"/>
<path d="M287.996 431.358C287.543 431.525 287.078 431.654 286.599 431.757C286.12 431.86 285.642 431.899 285.176 431.899C284.297 431.899 283.533 431.68 282.861 431.229C282.188 430.779 281.671 430.161 281.309 429.363C280.933 428.566 280.752 427.639 280.752 426.597V425.786C280.752 424.666 280.933 423.714 281.296 422.916C281.658 422.118 282.162 421.526 282.822 421.115C283.482 420.703 284.245 420.497 285.124 420.497C285.512 420.497 285.875 420.536 286.211 420.6C286.547 420.664 286.858 420.767 287.155 420.909C287.453 421.05 287.737 421.205 287.996 421.385L288.41 423.92H291.424V419.506C290.493 418.734 289.484 418.193 288.397 417.872C287.31 417.55 286.172 417.396 284.969 417.396C283.249 417.396 281.761 417.756 280.519 418.477C279.265 419.197 278.308 420.188 277.635 421.449C276.962 422.71 276.626 424.177 276.626 425.825V426.61C276.626 428.398 276.988 429.917 277.725 431.178C278.463 432.439 279.472 433.391 280.752 434.048C282.033 434.704 283.508 435.039 285.137 435.039C286.521 435.039 287.75 434.858 288.824 434.511C289.898 434.164 290.764 433.752 291.45 433.276V428.952H288.423L288.009 431.371L287.996 431.358Z" fill="#597A59"/>
<path d="M302.56 431.59H298.46V420.42L300.646 420.047V417.614H298.46H294.308H292.522V420.047L294.308 420.42V431.963L292.522 432.349V434.755H305.833V429.196H302.651L302.56 431.59Z" fill="#597A59"/>
<path d="M315.871 420.047L317.643 420.42V428.836C317.643 429.531 317.527 430.097 317.281 430.547C317.035 430.998 316.686 431.332 316.22 431.551C315.755 431.77 315.173 431.886 314.474 431.886C313.776 431.886 313.232 431.77 312.767 431.551C312.301 431.332 311.939 430.998 311.693 430.547C311.447 430.097 311.331 429.531 311.331 428.836V420.42L313.116 420.047V417.627H305.394V420.047L307.166 420.42V428.836C307.166 430.161 307.463 431.281 308.071 432.207C308.679 433.134 309.52 433.829 310.619 434.292C311.719 434.756 313.012 435 314.5 435C315.988 435 317.229 434.755 318.316 434.279C319.402 433.803 320.269 433.095 320.877 432.169C321.485 431.242 321.795 430.136 321.795 428.836V420.42L323.581 420.047V417.627H315.858V420.047H315.871Z" fill="#597A59"/>
<path d="M339.245 428.025C339.038 427.523 338.714 427.086 338.287 426.725C337.861 426.365 337.291 426.121 336.606 425.966C337.408 425.632 338.003 425.155 338.391 424.512C338.779 423.869 338.973 423.148 338.973 422.337C338.973 420.767 338.365 419.583 337.149 418.798C335.933 418.013 334.239 417.614 332.066 417.614H324.266V420.034L326.051 420.407V431.963L324.266 432.336V434.755H332.945C335.092 434.755 336.722 434.331 337.861 433.469C338.986 432.619 339.555 431.345 339.555 429.659C339.555 429.068 339.452 428.527 339.245 428.012V428.025ZM330.216 420.767H332.079C332.997 420.767 333.695 420.934 334.148 421.256C334.601 421.578 334.834 422.105 334.834 422.813C334.834 423.47 334.588 423.946 334.109 424.255C333.631 424.563 332.893 424.718 331.91 424.718H330.229V420.767H330.216ZM334.808 431.126C334.394 431.448 333.773 431.616 332.958 431.616H330.229V427.459H333.165C333.695 427.459 334.135 427.536 334.472 427.703C334.808 427.871 335.054 428.102 335.209 428.437C335.364 428.772 335.442 429.17 335.442 429.672C335.442 430.329 335.235 430.818 334.821 431.139L334.808 431.126Z" fill="#597A59"/>
<path d="M118.712 432.014V431.011L120.031 430.792V421.604L118.712 421.385V420.368H127.391V423.174H126.124L125.943 421.591H121.609V425.387H125.93V426.622H121.609V430.843H126.201L126.383 429.235H127.65V432.027H118.725L118.712 432.014Z" fill="#597A59"/>
<path d="M133.458 432.182C132.747 432.182 132.061 432.079 131.401 431.873C130.742 431.667 130.108 431.345 129.513 430.908V428.411H130.742L131.013 430.251C131.362 430.47 131.738 430.625 132.151 430.753C132.565 430.869 133.005 430.933 133.471 430.933C134.001 430.933 134.467 430.856 134.829 430.689C135.191 430.522 135.489 430.303 135.683 430.007C135.877 429.724 135.98 429.376 135.98 429.003C135.98 428.643 135.89 428.334 135.722 428.064C135.553 427.793 135.269 427.549 134.868 427.343C134.48 427.137 133.937 426.957 133.251 426.803C132.449 426.61 131.763 426.365 131.207 426.056C130.651 425.747 130.237 425.361 129.94 424.924C129.655 424.473 129.513 423.971 129.513 423.392C129.513 422.788 129.681 422.234 130.004 421.758C130.328 421.282 130.78 420.896 131.362 420.626C131.945 420.342 132.617 420.214 133.393 420.214C134.208 420.214 134.945 420.342 135.566 420.587C136.2 420.831 136.718 421.14 137.119 421.488V423.817H135.89L135.618 422.157C135.372 421.964 135.075 421.81 134.713 421.681C134.35 421.552 133.911 421.488 133.38 421.488C132.928 421.488 132.527 421.565 132.19 421.719C131.841 421.874 131.582 422.093 131.388 422.376C131.194 422.659 131.104 422.993 131.104 423.38C131.104 423.714 131.194 424.01 131.362 424.255C131.531 424.512 131.815 424.731 132.216 424.911C132.617 425.091 133.135 425.284 133.794 425.439C135.023 425.747 135.967 426.198 136.601 426.79C137.235 427.382 137.558 428.115 137.558 428.99C137.558 429.621 137.39 430.174 137.054 430.65C136.718 431.139 136.239 431.513 135.631 431.783C135.023 432.053 134.299 432.195 133.458 432.195V432.182Z" fill="#597A59"/>
<path d="M141.814 432.014V431.011L143.12 430.792V421.565H140.469L140.236 423.186H139.046V420.381H148.786V423.186H147.609L147.363 421.565H144.712V430.792L146.018 431.011V432.014H141.814Z" fill="#597A59"/>
<path d="M149.006 432.014V430.393H150.584V432.014H149.006Z" fill="#597A59"/>
<path d="M360.872 432.014V430.933L364.714 426.687C365.167 426.185 365.529 425.747 365.787 425.387C366.046 425.027 366.227 424.705 366.331 424.409C366.434 424.113 366.486 423.817 366.486 423.495C366.486 422.916 366.305 422.427 365.956 422.028C365.606 421.629 365.102 421.436 364.429 421.436C363.757 421.436 363.213 421.642 362.825 422.054C362.437 422.466 362.243 423.045 362.243 423.804H360.717V423.753C360.691 423.083 360.833 422.479 361.131 421.938C361.428 421.398 361.868 420.973 362.437 420.664C363.006 420.355 363.692 420.201 364.481 420.201C365.218 420.201 365.852 420.342 366.395 420.625C366.926 420.909 367.34 421.295 367.624 421.771C367.909 422.26 368.064 422.813 368.064 423.444C368.064 423.868 367.974 424.293 367.805 424.718C367.637 425.142 367.391 425.567 367.068 426.017C366.745 426.455 366.357 426.931 365.904 427.42L362.825 430.753V430.792H367.003L367.133 429.453H368.478V432.027H360.885L360.872 432.014Z" fill="#597A59"/>
<path d="M373.897 432.182C372.746 432.182 371.841 431.783 371.168 430.985C370.496 430.187 370.159 429.055 370.159 427.562V424.795C370.159 423.315 370.496 422.17 371.155 421.372C371.815 420.574 372.733 420.175 373.872 420.175C375.01 420.175 375.941 420.574 376.614 421.372C377.287 422.17 377.623 423.315 377.623 424.795V427.562C377.623 429.055 377.286 430.187 376.627 430.985C375.967 431.783 375.049 432.169 373.897 432.169V432.182ZM373.897 430.946C374.596 430.946 375.126 430.689 375.501 430.174C375.864 429.659 376.045 428.9 376.045 427.884V424.46C376.045 423.457 375.864 422.697 375.489 422.183C375.113 421.668 374.583 421.423 373.885 421.423C373.186 421.423 372.669 421.681 372.294 422.183C371.931 422.697 371.75 423.457 371.75 424.46V427.884C371.75 428.887 371.931 429.659 372.306 430.174C372.682 430.689 373.212 430.946 373.897 430.946Z" fill="#597A59"/>
<path d="M379.563 432.014V431.011L381.374 430.792V422.054L379.524 422.08V421.102L382.952 420.368V430.792L384.75 431.011V432.014H379.55H379.563Z" fill="#597A59"/>
<path d="M389.589 432.182C388.929 432.182 388.334 432.066 387.817 431.821C387.299 431.577 386.885 431.229 386.588 430.753C386.29 430.277 386.148 429.698 386.174 428.99V428.939H387.623C387.623 429.569 387.804 430.058 388.179 430.406C388.541 430.753 389.02 430.933 389.602 430.933C390.274 430.933 390.792 430.702 391.167 430.226C391.542 429.75 391.723 429.106 391.723 428.295C391.723 427.549 391.542 426.931 391.167 426.455C390.792 425.979 390.274 425.734 389.615 425.734C388.994 425.734 388.541 425.825 388.256 426.018C387.972 426.211 387.765 426.494 387.636 426.88L386.316 426.738L386.989 420.342H393.172V422.646H391.982L391.827 421.745H388.321L387.946 425.014C388.114 424.885 388.282 424.782 388.476 424.692C388.657 424.602 388.864 424.525 389.097 424.46C389.317 424.409 389.563 424.37 389.822 424.37C390.546 424.37 391.167 424.525 391.684 424.834C392.202 425.155 392.603 425.606 392.887 426.198C393.172 426.79 393.301 427.485 393.301 428.283C393.301 429.08 393.159 429.737 392.874 430.329C392.59 430.908 392.176 431.358 391.633 431.68C391.089 432.002 390.404 432.169 389.602 432.169L389.589 432.182Z" fill="#597A59"/>
<path d="M349.904 428.669C351.282 428.669 352.4 427.557 352.4 426.185C352.4 424.813 351.282 423.701 349.904 423.701C348.525 423.701 347.407 424.813 347.407 426.185C347.407 427.557 348.525 428.669 349.904 428.669Z" fill="#597A59"/>
<path d="M161.385 428.669C162.764 428.669 163.882 427.557 163.882 426.185C163.882 424.813 162.764 423.701 161.385 423.701C160.006 423.701 158.889 424.813 158.889 426.185C158.889 427.557 160.006 428.669 161.385 428.669Z" fill="#597A59"/>
<path d="M294.877 275.144C294.877 275.144 294.217 271.554 290 270.074C285.783 268.581 288.15 284.332 286.572 290.625C284.994 296.918 279.445 299.029 268.76 307.419C262.099 312.657 256.847 319.233 254.622 326.104C258.322 325.5 269.717 320.905 271.503 317.65C271.503 317.65 271.451 319.181 271.024 321.407C272.706 320.429 274.322 319.31 275.888 318.087C279.212 314.664 282.239 309.89 284.179 303.211C284.179 303.211 284.451 306.261 283.636 310.199C289.987 302.465 296.338 292.8 296.493 284.886C296.493 284.886 297.231 285.967 297.787 287.923C304.85 272.48 307.98 257.385 307.359 253.512C307.256 252.881 307.178 252.276 307.1 251.697C300.646 258.273 290.427 262.005 280.674 262.005C279.781 262.005 278.902 261.954 278.022 261.889C286.87 264.746 299.042 266.368 294.889 275.144H294.877Z" fill="#204023"/>
<path d="M322.675 149.429C320.424 149.429 318.225 150.137 316.311 151.462C311.835 154.564 308.136 156.263 305.342 157.189C305.212 163.096 305.148 169.504 305.148 176.479V176.943L305.031 177.393C304.811 178.229 303.337 182.579 295.873 186.594C293.622 187.804 291.048 188.872 288.164 189.786C286.469 196.915 285.24 202.307 284.348 206.399C299.146 203.671 310.955 198.717 319.622 191.574C333.101 180.469 334.148 167.922 334.148 164.344C334.148 154.049 328.392 149.429 322.701 149.429H322.675ZM324.99 170.56C319.816 185.925 308.343 192.102 308.343 192.102C308.343 192.102 325.107 179.195 322.157 164.421C322.157 157.704 307.709 161.011 307.709 161.011C310.128 159.132 316.854 157.176 319.415 155.182C323.257 152.183 330.164 155.182 324.99 170.547V170.56Z" fill="#204023"/>
<path d="M306.687 83.747C299.146 76.6563 253.937 76 253.937 76C253.937 76 208.729 76.6563 201.2 83.747C200.23 84.6607 199.881 85.4843 199.933 86.9256C203.852 92.2919 226.54 96.4099 253.937 96.4099C265.54 96.4099 276.302 95.6635 285.137 94.4152C289.664 117.901 294.968 153.419 291.204 176.351C297.322 174.781 301.151 172.683 301.151 170.045C301.655 90.4774 311.344 88.161 306.674 83.7599L306.687 83.747ZM253.95 92.4592C231.301 92.4592 212.933 89.242 212.933 85.2655C212.933 81.2891 231.301 78.0719 253.95 78.0719C276.6 78.0719 294.968 81.2891 294.968 85.2655C294.968 89.242 276.6 92.4592 253.95 92.4592Z" fill="#204023"/>
</g>
<defs>
<clipPath id="clip0_1889_2744">
<rect width="464" height="359" fill="white" transform="translate(24 76)"/>
</clipPath>
</defs>
</svg>
